{
	"patcher" : 	{
		"fileversion" : 1,
		"appversion" : 		{
			"major" : 8,
			"minor" : 5,
			"revision" : 6,
			"architecture" : "x64",
			"modernui" : 1
		}
,
		"classnamespace" : "dsp.gen",
		"rect" : [ 34.0, 115.0, 3772.0, 1451.0 ],
		"bglocked" : 0,
		"openinpresentation" : 0,
		"default_fontsize" : 12.0,
		"default_fontface" : 0,
		"default_fontname" : "Arial",
		"gridonopen" : 2,
		"gridsize" : [ 15.0, 15.0 ],
		"gridsnaponopen" : 2,
		"objectsnaponopen" : 1,
		"statusbarvisible" : 2,
		"toolbarvisible" : 1,
		"lefttoolbarpinned" : 0,
		"toptoolbarpinned" : 0,
		"righttoolbarpinned" : 0,
		"bottomtoolbarpinned" : 0,
		"toolbars_unpinned_last_save" : 0,
		"tallnewobj" : 0,
		"boxanimatetime" : 200,
		"enablehscroll" : 1,
		"enablevscroll" : 1,
		"devicewidth" : 0.0,
		"description" : "",
		"digest" : "",
		"tags" : "",
		"style" : "",
		"subpatcher_template" : "OpenGrid",
		"assistshowspatchername" : 0,
		"boxes" : [ 			{
				"box" : 				{
					"id" : "obj-12",
					"maxclass" : "newobj",
					"numinlets" : 0,
					"numoutlets" : 1,
					"outlettype" : [ "" ],
					"patching_rect" : [ 507.0, 30.0, 125.0, 22.0 ],
					"text" : "in 3 @comment index"
				}

			}
, 			{
				"box" : 				{
					"code" : "Param voices(20);\r\nParam bufferSize(1024);\r\nData fft_buffer(bufferSize, 4);\r\nindex = in3;\r\n\r\npoke(fft_buffer, in1, index, 0);\r\npoke(fft_buffer, in2, index, 1);\r\n\r\n\r\nif(index == 0) \r\n{\r\n\tfor(cindex = 0; cindex < bufferSize; cindex += 1)\r\n\t{\t\t\r\n\t\t//a = peek(fft_buffer, cindex, 0);\r\n\t\t//poke(fft_buffer, a, cindex, 2);\r\n\t\tpoke(fft_buffer, 0.0, cindex, 2);\r\n\t\t\r\n\t\tp = peek(fft_buffer, cindex, 1);\r\n\t\tpoke(fft_buffer, p, cindex, 3);\t\t\t\t\r\n\t}\t\t\r\n\t\r\n\tfor(vindex = 0; vindex < voices; vindex += 1)\r\n\t{\r\n\t\tmaxValue = 0.0;\r\n\t\tmaxIndex = 0;\r\n\t\tfor(tindex = 0; tindex < bufferSize; tindex += 1)\r\n\t\t{\r\n\t\t\ta = peek(fft_buffer, tindex, 0);\r\n\t\t\tif(a > maxValue)\r\n\t\t\t{\t\t\t\r\n\t\t\t\tmaxValue = a;\r\n\t\t\t\tmaxIndex = tindex;\r\n\t\t\t}\r\n\t\t}\r\n\t\t\r\n\t\tpoke(fft_buffer, 0.0, maxIndex, 0);\r\n\t\tpoke(fft_buffer, maxValue, maxIndex, 2);\r\n\r\n\t}\r\n}\r\n\r\n\r\nout1 = peek(fft_buffer, index, 2);\r\nout2 = peek(fft_buffer, index, 3);\r\n",
					"fontface" : 0,
					"fontname" : "<Monospaced>",
					"fontsize" : 12.0,
					"id" : "obj-3",
					"maxclass" : "codebox",
					"numinlets" : 3,
					"numoutlets" : 2,
					"outlettype" : [ "", "" ],
					"patching_rect" : [ 30.0, 75.0, 496.0, 525.0 ]
				}

			}
, 			{
				"box" : 				{
					"id" : "obj-5",
					"maxclass" : "newobj",
					"numinlets" : 1,
					"numoutlets" : 0,
					"patching_rect" : [ 507.0, 645.0, 35.0, 22.0 ],
					"text" : "out 2"
				}

			}
, 			{
				"box" : 				{
					"id" : "obj-1",
					"maxclass" : "newobj",
					"numinlets" : 0,
					"numoutlets" : 1,
					"outlettype" : [ "" ],
					"patching_rect" : [ 30.0, 30.0, 148.0, 22.0 ],
					"text" : "in 1 @comment amplitude"
				}

			}
, 			{
				"box" : 				{
					"id" : "obj-2",
					"maxclass" : "newobj",
					"numinlets" : 0,
					"numoutlets" : 1,
					"outlettype" : [ "" ],
					"patching_rect" : [ 268.5, 30.0, 129.0, 22.0 ],
					"text" : "in 2 @comment phase"
				}

			}
, 			{
				"box" : 				{
					"id" : "obj-4",
					"maxclass" : "newobj",
					"numinlets" : 1,
					"numoutlets" : 0,
					"patching_rect" : [ 30.0, 660.0, 35.0, 22.0 ],
					"text" : "out 1"
				}

			}
 ],
		"lines" : [ 			{
				"patchline" : 				{
					"destination" : [ "obj-3", 0 ],
					"source" : [ "obj-1", 0 ]
				}

			}
, 			{
				"patchline" : 				{
					"destination" : [ "obj-3", 2 ],
					"source" : [ "obj-12", 0 ]
				}

			}
, 			{
				"patchline" : 				{
					"destination" : [ "obj-3", 1 ],
					"source" : [ "obj-2", 0 ]
				}

			}
, 			{
				"patchline" : 				{
					"destination" : [ "obj-4", 0 ],
					"source" : [ "obj-3", 0 ]
				}

			}
, 			{
				"patchline" : 				{
					"destination" : [ "obj-5", 0 ],
					"source" : [ "obj-3", 1 ]
				}

			}
 ]
	}

}
