{
	"patcher" : 	{
		"fileversion" : 1,
		"appversion" : 		{
			"major" : 8,
			"minor" : 5,
			"revision" : 5,
			"architecture" : "x64",
			"modernui" : 1
		}
,
		"classnamespace" : "box",
		"rect" : [ 482.0, 453.0, 2720.0, 1003.0 ],
		"bglocked" : 0,
		"openinpresentation" : 0,
		"default_fontsize" : 12.0,
		"default_fontface" : 0,
		"default_fontname" : "Arial",
		"gridonopen" : 2,
		"gridsize" : [ 15.0, 15.0 ],
		"gridsnaponopen" : 2,
		"objectsnaponopen" : 1,
		"statusbarvisible" : 2,
		"toolbarvisible" : 1,
		"lefttoolbarpinned" : 0,
		"toptoolbarpinned" : 0,
		"righttoolbarpinned" : 0,
		"bottomtoolbarpinned" : 0,
		"toolbars_unpinned_last_save" : 0,
		"tallnewobj" : 0,
		"boxanimatetime" : 200,
		"enablehscroll" : 1,
		"enablevscroll" : 1,
		"devicewidth" : 0.0,
		"description" : "",
		"digest" : "",
		"tags" : "",
		"style" : "",
		"subpatcher_template" : "OpenGrid",
		"assistshowspatchername" : 0,
		"boxes" : [ 			{
				"box" : 				{
					"id" : "obj-7",
					"maxclass" : "button",
					"numinlets" : 1,
					"numoutlets" : 1,
					"outlettype" : [ "bang" ],
					"parameter_enable" : 0,
					"patching_rect" : [ 1005.0, 210.0, 24.0, 24.0 ]
				}

			}
, 			{
				"box" : 				{
					"id" : "obj-5",
					"maxclass" : "newobj",
					"numinlets" : 0,
					"numoutlets" : 1,
					"outlettype" : [ "" ],
					"patching_rect" : [ 1050.0, 180.0, 107.0, 22.0 ],
					"text" : "wa.setup.bpatcher"
				}

			}
, 			{
				"box" : 				{
					"filename" : "launchkey_device_ui.js",
					"id" : "obj-4",
					"jsarguments" : [ "launchkey_places.json" ],
					"maxclass" : "jsui",
					"numinlets" : 1,
					"numoutlets" : 1,
					"outlettype" : [ "" ],
					"parameter_enable" : 0,
					"patching_rect" : [ 1020.0, 270.0, 345.0, 45.0 ],
					"presentation" : 1,
					"presentation_rect" : [ 0.0, 0.0, 345.0, 45.0 ]
				}

			}
, 			{
				"box" : 				{
					"id" : "obj-2",
					"maxclass" : "newobj",
					"numinlets" : 2,
					"numoutlets" : 2,
					"outlettype" : [ "", "" ],
					"patching_rect" : [ 20.0, 90.0, 91.0, 22.0 ],
					"text" : "routepass bang"
				}

			}
, 			{
				"box" : 				{
					"id" : "obj-59",
					"linecount" : 7,
					"maxclass" : "comment",
					"numinlets" : 1,
					"numoutlets" : 0,
					"patching_rect" : [ 225.0, 120.0, 182.0, 100.0 ],
					"text" : "note on \n= 144 (channel 1)\n= 159 (channel 16)\n\ncontroller change \n= 176 (channel 1)\n= 181 (channel 16)"
				}

			}
, 			{
				"box" : 				{
					"id" : "obj-62",
					"maxclass" : "newobj",
					"numinlets" : 1,
					"numoutlets" : 1,
					"outlettype" : [ "" ],
					"patching_rect" : [ 330.0, 455.0, 281.0, 22.0 ],
					"saved_object_attributes" : 					{
						"filename" : "launchpad_color_select",
						"parameter_enable" : 0
					}
,
					"text" : "js launchpad_color_select launchpad_colors.json"
				}

			}
, 			{
				"box" : 				{
					"id" : "obj-3",
					"maxclass" : "newobj",
					"numinlets" : 0,
					"numoutlets" : 1,
					"outlettype" : [ "" ],
					"patching_rect" : [ 330.0, 360.0, 137.0, 22.0 ],
					"text" : "receive launchkey_color"
				}

			}
, 			{
				"box" : 				{
					"id" : "obj-17",
					"maxclass" : "newobj",
					"numinlets" : 1,
					"numoutlets" : 0,
					"patching_rect" : [ 660.0, 195.0, 93.0, 22.0 ],
					"text" : "print CHANNEL"
				}

			}
, 			{
				"box" : 				{
					"id" : "obj-16",
					"maxclass" : "newobj",
					"numinlets" : 1,
					"numoutlets" : 0,
					"patching_rect" : [ 600.0, 240.0, 53.0, 22.0 ],
					"text" : "print CC"
				}

			}
, 			{
				"box" : 				{
					"id" : "obj-15",
					"maxclass" : "newobj",
					"numinlets" : 1,
					"numoutlets" : 0,
					"patching_rect" : [ 480.0, 225.0, 69.0, 22.0 ],
					"text" : "print NOTE"
				}

			}
, 			{
				"box" : 				{
					"id" : "obj-14",
					"maxclass" : "newobj",
					"numinlets" : 1,
					"numoutlets" : 8,
					"outlettype" : [ "", "", "", "int", "int", "", "int", "" ],
					"patching_rect" : [ 480.0, 150.0, 92.5, 22.0 ],
					"text" : "midiparse"
				}

			}
, 			{
				"box" : 				{
					"id" : "obj-10",
					"maxclass" : "newobj",
					"numinlets" : 1,
					"numoutlets" : 0,
					"patching_rect" : [ 570.0, 735.0, 249.0, 22.0 ],
					"text" : "midiout \"Launchkey MK3 61 LKMK3 DAW In\""
				}

			}
, 			{
				"box" : 				{
					"id" : "obj-9",
					"maxclass" : "newobj",
					"numinlets" : 1,
					"numoutlets" : 1,
					"outlettype" : [ "int" ],
					"patching_rect" : [ 480.0, 75.0, 251.0, 22.0 ],
					"text" : "midiin \"Launchkey MK3 61 LKMK3 DAW Out\""
				}

			}
, 			{
				"box" : 				{
					"comment" : "",
					"id" : "obj-1",
					"index" : 0,
					"maxclass" : "inlet",
					"numinlets" : 0,
					"numoutlets" : 1,
					"outlettype" : [ "" ],
					"patching_rect" : [ 20.0, 20.0, 30.0, 30.0 ]
				}

			}
 ],
		"lines" : [ 			{
				"patchline" : 				{
					"destination" : [ "obj-2", 0 ],
					"source" : [ "obj-1", 0 ]
				}

			}
, 			{
				"patchline" : 				{
					"destination" : [ "obj-15", 0 ],
					"source" : [ "obj-14", 0 ]
				}

			}
, 			{
				"patchline" : 				{
					"destination" : [ "obj-16", 0 ],
					"source" : [ "obj-14", 2 ]
				}

			}
, 			{
				"patchline" : 				{
					"destination" : [ "obj-17", 0 ],
					"source" : [ "obj-14", 6 ]
				}

			}
, 			{
				"patchline" : 				{
					"destination" : [ "obj-62", 0 ],
					"source" : [ "obj-3", 0 ]
				}

			}
, 			{
				"patchline" : 				{
					"destination" : [ "obj-4", 0 ],
					"source" : [ "obj-7", 0 ]
				}

			}
, 			{
				"patchline" : 				{
					"destination" : [ "obj-14", 0 ],
					"source" : [ "obj-9", 0 ]
				}

			}
 ],
		"dependency_cache" : [ 			{
				"name" : "_launchkey.js",
				"bootpath" : "/Volumes/DATA/_Home/GitHub/MusicProjects/WaMaxPackage/jsui/hardware",
				"patcherrelativepath" : "../../jsui/hardware",
				"type" : "TEXT",
				"implicit" : 1
			}
, 			{
				"name" : "bpatcher_size.js",
				"bootpath" : "/Volumes/DATA/_Home/GitHub/MusicProjects/WaMaxPackage/javascript/setup",
				"patcherrelativepath" : "../../javascript/setup",
				"type" : "TEXT",
				"implicit" : 1
			}
, 			{
				"name" : "launchkey_device_ui.js",
				"bootpath" : "/Volumes/DATA/_Home/GitHub/MusicProjects/WaMaxPackage/jsui/hardware",
				"patcherrelativepath" : "../../jsui/hardware",
				"type" : "TEXT",
				"implicit" : 1
			}
, 			{
				"name" : "launchpad_color_select.js",
				"bootpath" : "/Volumes/DATA/_Home/GitHub/MusicProjects/WaMaxPackage/javascript/hardware",
				"patcherrelativepath" : "../../javascript/hardware",
				"type" : "TEXT",
				"implicit" : 1
			}
, 			{
				"name" : "wa.setup.bpatcher.maxpat",
				"bootpath" : "/Volumes/DATA/_Home/GitHub/MusicProjects/WaMaxPackage/patchers/setup",
				"patcherrelativepath" : "../setup",
				"type" : "JSON",
				"implicit" : 1
			}
 ],
		"autosave" : 0
	}

}
