{
	"patcher" : 	{
		"fileversion" : 1,
		"appversion" : 		{
			"major" : 8,
			"minor" : 5,
			"revision" : 5,
			"architecture" : "x64",
			"modernui" : 1
		}
,
		"classnamespace" : "dsp.gen",
		"rect" : [ 34.0, 283.0, 1951.0, 1283.0 ],
		"bglocked" : 0,
		"openinpresentation" : 0,
		"default_fontsize" : 12.0,
		"default_fontface" : 0,
		"default_fontname" : "Arial",
		"gridonopen" : 2,
		"gridsize" : [ 15.0, 15.0 ],
		"gridsnaponopen" : 2,
		"objectsnaponopen" : 1,
		"statusbarvisible" : 2,
		"toolbarvisible" : 1,
		"lefttoolbarpinned" : 0,
		"toptoolbarpinned" : 0,
		"righttoolbarpinned" : 0,
		"bottomtoolbarpinned" : 0,
		"toolbars_unpinned_last_save" : 0,
		"tallnewobj" : 0,
		"boxanimatetime" : 200,
		"enablehscroll" : 1,
		"enablevscroll" : 1,
		"devicewidth" : 0.0,
		"description" : "",
		"digest" : "",
		"tags" : "",
		"style" : "",
		"subpatcher_template" : "OpenGrid",
		"assistshowspatchername" : 0,
		"boxes" : [ 			{
				"box" : 				{
					"id" : "obj-8",
					"maxclass" : "newobj",
					"numinlets" : 1,
					"numoutlets" : 0,
					"patching_rect" : [ 810.0, 1140.0, 171.0, 22.0 ],
					"text" : "out 5 @comment sourceOffset"
				}

			}
, 			{
				"box" : 				{
					"id" : "obj-7",
					"maxclass" : "newobj",
					"numinlets" : 1,
					"numoutlets" : 0,
					"patching_rect" : [ 645.0, 1140.0, 151.0, 22.0 ],
					"text" : "out 4 @comment elevation"
				}

			}
, 			{
				"box" : 				{
					"id" : "obj-4",
					"maxclass" : "newobj",
					"numinlets" : 1,
					"numoutlets" : 0,
					"patching_rect" : [ 480.0, 1140.0, 145.0, 22.0 ],
					"text" : "out 3 @comment azimuth"
				}

			}
, 			{
				"box" : 				{
					"id" : "obj-9",
					"maxclass" : "newobj",
					"numinlets" : 0,
					"numoutlets" : 1,
					"outlettype" : [ "" ],
					"patching_rect" : [ 915.0, 45.0, 125.0, 22.0 ],
					"text" : "in 5 @comment audio"
				}

			}
, 			{
				"box" : 				{
					"id" : "obj-6",
					"maxclass" : "newobj",
					"numinlets" : 1,
					"numoutlets" : 0,
					"patching_rect" : [ 210.0, 1140.0, 161.0, 22.0 ],
					"text" : "out 2 @comment audioRight"
				}

			}
, 			{
				"box" : 				{
					"id" : "obj-2",
					"maxclass" : "newobj",
					"numinlets" : 1,
					"numoutlets" : 0,
					"patching_rect" : [ 30.0, 1140.0, 153.0, 22.0 ],
					"text" : "out 1 @comment audioLeft"
				}

			}
, 			{
				"box" : 				{
					"id" : "obj-1",
					"maxclass" : "newobj",
					"numinlets" : 0,
					"numoutlets" : 1,
					"outlettype" : [ "" ],
					"patching_rect" : [ 686.0, 30.0, 138.0, 22.0 ],
					"text" : "in 4 @comment plane_z"
				}

			}
, 			{
				"box" : 				{
					"id" : "obj-12",
					"maxclass" : "newobj",
					"numinlets" : 0,
					"numoutlets" : 1,
					"outlettype" : [ "" ],
					"patching_rect" : [ 467.333333333333314, 30.0, 138.0, 22.0 ],
					"text" : "in 3 @comment plane_y"
				}

			}
, 			{
				"box" : 				{
					"id" : "obj-13",
					"maxclass" : "newobj",
					"numinlets" : 0,
					"numoutlets" : 1,
					"outlettype" : [ "" ],
					"patching_rect" : [ 248.666666666666629, 30.0, 138.0, 22.0 ],
					"text" : "in 2 @comment plane_x"
				}

			}
, 			{
				"box" : 				{
					"id" : "obj-16",
					"maxclass" : "newobj",
					"numinlets" : 0,
					"numoutlets" : 1,
					"outlettype" : [ "" ],
					"patching_rect" : [ 735.0, 120.0, 129.0, 22.0 ],
					"text" : "param permialbility 15."
				}

			}
, 			{
				"box" : 				{
					"code" : "require(\"linalg\");\r\n\r\n// data\r\nParam sampleCount(256);\r\nDelay inputShiftRegister(sampleCount);\r\nDelay offsetShiftRegister(sampleCount);\r\nBuffer source(\"spatialSource\");\r\n\r\ndistance = in1;\r\nplane_x, plane_y, plane_z = in2, in3, in4;\r\n\r\n// dir in plane\r\nradius, azimuth, elevation = cartToSphere(plane_x, plane_y, plane_z);\r\n\r\n// azimuth\r\nif(azimuth > (3 * HALFPI))\r\n\tazimuth = azimuth - (3 * HALFPI);\r\nelse\r\n\tazimuth = azimuth + HALFPI;\r\n\t\r\nazimuth = 360 - round(azimuth * radtodeg);\r\nif(360 == azimuth)\r\n\tazimuth = 0;\r\n\t\r\n// inclinaton\r\nelevation = PI - elevation;\r\nelevation = round(elevation * radtodeg);\r\n\r\n// offset\r\nsourceOffset = (azimuth * 180) + elevation;\r\nsourceOffset *= sampleCount;\r\n\r\n// inline comvolution\r\ninputShiftRegister.write(in5);\r\noffsetShiftRegister.write(sourceOffset);\r\n\r\naudioLeft = 0;\r\naudioRight = 0;\r\n\r\nfor (i = 0; i < sampleCount; i += 1) \r\n{\r\n\toffset = offsetShiftRegister.read(i, interp=\"step\");\r\n\r\n\tconvLeft = peek(source, sourceOffset + i, 0);\t\t\n\tconvRight = peek(source, sourceOffset + i, 1);\t\t\n\t\n\taudioTap = inputShiftRegister.read(i, interp=\"step\");\t\n\t\n\taudioLeft += (convLeft * audioTap);\r\n\taudioRight += (convRight * audioTap);\r\n\t\t}\n\r\n\r\n// get attenuation\r\nfactor = distance / permialbility;\r\nfactor2 = -1.0 * factor * factor;\r\ndamp = exp(factor2);\r\n// damp = 1.0;\r\n\r\n// out\r\nout1 = audioLeft * damp;\r\nout2 = audioRight * damp;\r\n\r\n//debug\r\nout3 = azimuth;\r\nout4 = elevation;\r\nout5 = sourceOffset;\r\n",
					"fontface" : 0,
					"fontname" : "<Monospaced>",
					"fontsize" : 12.0,
					"id" : "obj-3",
					"maxclass" : "codebox",
					"numinlets" : 5,
					"numoutlets" : 5,
					"outlettype" : [ "", "", "", "", "" ],
					"patching_rect" : [ 30.0, 75.0, 675.0, 990.0 ]
				}

			}
, 			{
				"box" : 				{
					"id" : "obj-5",
					"maxclass" : "newobj",
					"numinlets" : 0,
					"numoutlets" : 1,
					"outlettype" : [ "" ],
					"patching_rect" : [ 30.0, 30.0, 141.0, 22.0 ],
					"text" : "in 1 @comment distance"
				}

			}
 ],
		"lines" : [ 			{
				"patchline" : 				{
					"destination" : [ "obj-3", 3 ],
					"source" : [ "obj-1", 0 ]
				}

			}
, 			{
				"patchline" : 				{
					"destination" : [ "obj-3", 2 ],
					"source" : [ "obj-12", 0 ]
				}

			}
, 			{
				"patchline" : 				{
					"destination" : [ "obj-3", 1 ],
					"source" : [ "obj-13", 0 ]
				}

			}
, 			{
				"patchline" : 				{
					"destination" : [ "obj-2", 0 ],
					"source" : [ "obj-3", 0 ]
				}

			}
, 			{
				"patchline" : 				{
					"destination" : [ "obj-4", 0 ],
					"source" : [ "obj-3", 2 ]
				}

			}
, 			{
				"patchline" : 				{
					"destination" : [ "obj-6", 0 ],
					"source" : [ "obj-3", 1 ]
				}

			}
, 			{
				"patchline" : 				{
					"destination" : [ "obj-7", 0 ],
					"source" : [ "obj-3", 3 ]
				}

			}
, 			{
				"patchline" : 				{
					"destination" : [ "obj-8", 0 ],
					"source" : [ "obj-3", 4 ]
				}

			}
, 			{
				"patchline" : 				{
					"destination" : [ "obj-3", 0 ],
					"source" : [ "obj-5", 0 ]
				}

			}
, 			{
				"patchline" : 				{
					"destination" : [ "obj-3", 4 ],
					"source" : [ "obj-9", 0 ]
				}

			}
 ]
	}

}
