{
	"patcher" : 	{
		"fileversion" : 1,
		"appversion" : 		{
			"major" : 8,
			"minor" : 6,
			"revision" : 0,
			"architecture" : "x64",
			"modernui" : 1
		}
,
		"classnamespace" : "dsp.gen",
		"rect" : [ 823.0, 115.0, 1980.0, 1451.0 ],
		"bglocked" : 0,
		"openinpresentation" : 0,
		"default_fontsize" : 12.0,
		"default_fontface" : 0,
		"default_fontname" : "Arial",
		"gridonopen" : 2,
		"gridsize" : [ 15.0, 15.0 ],
		"gridsnaponopen" : 2,
		"objectsnaponopen" : 1,
		"statusbarvisible" : 2,
		"toolbarvisible" : 1,
		"lefttoolbarpinned" : 0,
		"toptoolbarpinned" : 0,
		"righttoolbarpinned" : 0,
		"bottomtoolbarpinned" : 0,
		"toolbars_unpinned_last_save" : 0,
		"tallnewobj" : 0,
		"boxanimatetime" : 200,
		"enablehscroll" : 1,
		"enablevscroll" : 1,
		"devicewidth" : 0.0,
		"description" : "",
		"digest" : "",
		"tags" : "",
		"style" : "",
		"subpatcher_template" : "OpenGrid",
		"assistshowspatchername" : 0,
		"boxes" : [ 			{
				"box" : 				{
					"id" : "obj-8",
					"maxclass" : "newobj",
					"numinlets" : 0,
					"numoutlets" : 1,
					"outlettype" : [ "" ],
					"patching_rect" : [ 840.0, 30.0, 133.0, 22.0 ],
					"text" : "in 6 @comment normal"
				}

			}
, 			{
				"box" : 				{
					"id" : "obj-9",
					"maxclass" : "newobj",
					"numinlets" : 0,
					"numoutlets" : 1,
					"outlettype" : [ "" ],
					"patching_rect" : [ 690.0, 30.0, 125.0, 22.0 ],
					"text" : "in 5 @comment audio"
				}

			}
, 			{
				"box" : 				{
					"id" : "obj-6",
					"maxclass" : "newobj",
					"numinlets" : 1,
					"numoutlets" : 0,
					"patching_rect" : [ 360.0, 1140.0, 161.0, 22.0 ],
					"text" : "out 2 @comment audioRight"
				}

			}
, 			{
				"box" : 				{
					"id" : "obj-2",
					"maxclass" : "newobj",
					"numinlets" : 1,
					"numoutlets" : 0,
					"patching_rect" : [ 30.0, 1140.0, 153.0, 22.0 ],
					"text" : "out 1 @comment audioLeft"
				}

			}
, 			{
				"box" : 				{
					"id" : "obj-1",
					"maxclass" : "newobj",
					"numinlets" : 0,
					"numoutlets" : 1,
					"outlettype" : [ "" ],
					"patching_rect" : [ 525.0, 30.0, 138.0, 22.0 ],
					"text" : "in 4 @comment plane_z"
				}

			}
, 			{
				"box" : 				{
					"id" : "obj-12",
					"maxclass" : "newobj",
					"numinlets" : 0,
					"numoutlets" : 1,
					"outlettype" : [ "" ],
					"patching_rect" : [ 360.0, 30.0, 138.0, 22.0 ],
					"text" : "in 3 @comment plane_y"
				}

			}
, 			{
				"box" : 				{
					"id" : "obj-13",
					"maxclass" : "newobj",
					"numinlets" : 0,
					"numoutlets" : 1,
					"outlettype" : [ "" ],
					"patching_rect" : [ 195.0, 30.0, 138.0, 22.0 ],
					"text" : "in 2 @comment plane_x"
				}

			}
, 			{
				"box" : 				{
					"id" : "obj-16",
					"maxclass" : "newobj",
					"numinlets" : 0,
					"numoutlets" : 1,
					"outlettype" : [ "" ],
					"patching_rect" : [ 735.0, 165.0, 123.0, 22.0 ],
					"text" : "param permialbility 0."
				}

			}
, 			{
				"box" : 				{
					"code" : "require(\"linalg\");\r\n\r\n// data\r\nParam sampleCount(128);\r\nDelay inputShiftRegister(sampleCount);\r\nBuffer spatialSource(\"spatialSource\");\r\n\r\nDelay offsetShiftRegister(sampleCount);\r\n\r\ndistance = in1;\r\nplane_x, plane_y, plane_z = in2, in3, in4;\r\n\r\nnormalizer = 1.0 / in6;\r\n\r\n// dir in plane\r\nradius, azimuth, elevation = cartToSphere(plane_x, plane_y, plane_z);\r\n\r\n// radtodeg\r\nazimuth = azimuth * radtodeg;\r\nelevation = elevation * radtodeg;\r\n\r\n// offset\r\nsourceOffset = round(azimuth) + (round(elevation) * 360); \r\nsourceOffset *= sampleCount;\r\n\r\n// inline comvolution\r\ninputShiftRegister.write(in5);\r\noffsetShiftRegister.write(sourceOffset);\r\n\r\naudioLeft = 0;\r\naudioRight = 0;\r\n\r\nfor (i = 0; i < sampleCount; i += 1) \r\n{\r\n\toffset = offsetShiftRegister.read(i, interp=\"step\");\t\r\n\t// offset = sourceOffset;\r\n\r\n\tconvLeft = peek(spatialSource, offset + i, 0);\t\t\n\tconvRight = peek(spatialSource, offset + i, 1);\t\t\n\t\n\taudioTap = inputShiftRegister.read(i, interp=\"step\");\t\n\t\n\taudioLeft += (convLeft * audioTap) * normalizer;\r\n\taudioRight += (convRight * audioTap) * normalizer;\r\n}\r\n\r\n// get attenuation\r\ndamp = 1.0;\r\nif(permialbility > 0.0)\r\n{\r\n\tfactor = distance / permialbility;\r\n\tfactor2 = -1.0 * factor * factor;\r\n\tdamp = exp(factor2);\r\n}\r\n\r\n// out\r\nout1 = audioLeft * damp;\r\nout2 = audioRight * damp;\r\n\r\n",
					"fontface" : 0,
					"fontname" : "<Monospaced>",
					"fontsize" : 12.0,
					"id" : "obj-3",
					"maxclass" : "codebox",
					"numinlets" : 6,
					"numoutlets" : 3,
					"outlettype" : [ "", "", "" ],
					"patching_rect" : [ 30.0, 133.0, 675.0, 990.0 ]
				}

			}
, 			{
				"box" : 				{
					"id" : "obj-5",
					"maxclass" : "newobj",
					"numinlets" : 0,
					"numoutlets" : 1,
					"outlettype" : [ "" ],
					"patching_rect" : [ 30.0, 30.0, 141.0, 22.0 ],
					"text" : "in 1 @comment distance"
				}

			}
 ],
		"lines" : [ 			{
				"patchline" : 				{
					"destination" : [ "obj-3", 3 ],
					"source" : [ "obj-1", 0 ]
				}

			}
, 			{
				"patchline" : 				{
					"destination" : [ "obj-3", 2 ],
					"source" : [ "obj-12", 0 ]
				}

			}
, 			{
				"patchline" : 				{
					"destination" : [ "obj-3", 1 ],
					"source" : [ "obj-13", 0 ]
				}

			}
, 			{
				"patchline" : 				{
					"destination" : [ "obj-2", 0 ],
					"source" : [ "obj-3", 0 ]
				}

			}
, 			{
				"patchline" : 				{
					"destination" : [ "obj-6", 0 ],
					"source" : [ "obj-3", 1 ]
				}

			}
, 			{
				"patchline" : 				{
					"destination" : [ "obj-3", 0 ],
					"source" : [ "obj-5", 0 ]
				}

			}
, 			{
				"patchline" : 				{
					"destination" : [ "obj-3", 5 ],
					"source" : [ "obj-8", 0 ]
				}

			}
, 			{
				"patchline" : 				{
					"destination" : [ "obj-3", 4 ],
					"source" : [ "obj-9", 0 ]
				}

			}
 ],
		"autosave" : 0
	}

}
