{
	"patcher" : 	{
		"fileversion" : 1,
		"appversion" : 		{
			"major" : 8,
			"minor" : 5,
			"revision" : 5,
			"architecture" : "x64",
			"modernui" : 1
		}
,
		"classnamespace" : "dsp.gen",
		"rect" : [ 34.0, 227.0, 3765.0, 1147.0 ],
		"bglocked" : 0,
		"openinpresentation" : 0,
		"default_fontsize" : 12.0,
		"default_fontface" : 0,
		"default_fontname" : "Arial",
		"gridonopen" : 2,
		"gridsize" : [ 15.0, 15.0 ],
		"gridsnaponopen" : 2,
		"objectsnaponopen" : 1,
		"statusbarvisible" : 2,
		"toolbarvisible" : 1,
		"lefttoolbarpinned" : 0,
		"toptoolbarpinned" : 0,
		"righttoolbarpinned" : 0,
		"bottomtoolbarpinned" : 0,
		"toolbars_unpinned_last_save" : 0,
		"tallnewobj" : 0,
		"boxanimatetime" : 200,
		"enablehscroll" : 1,
		"enablevscroll" : 1,
		"devicewidth" : 0.0,
		"description" : "",
		"digest" : "",
		"tags" : "",
		"style" : "",
		"subpatcher_template" : "OpenGrid",
		"assistshowspatchername" : 0,
		"boxes" : [ 			{
				"box" : 				{
					"id" : "obj-10",
					"maxclass" : "newobj",
					"numinlets" : 1,
					"numoutlets" : 0,
					"patching_rect" : [ 532.0, 900.0, 184.0, 22.0 ],
					"text" : "out 8 @comment rightDownBack"
				}

			}
, 			{
				"box" : 				{
					"id" : "obj-11",
					"maxclass" : "newobj",
					"numinlets" : 1,
					"numoutlets" : 0,
					"patching_rect" : [ 460.285714285714278, 930.0, 177.0, 22.0 ],
					"text" : "out 7 @comment leftDownBack"
				}

			}
, 			{
				"box" : 				{
					"id" : "obj-12",
					"maxclass" : "newobj",
					"numinlets" : 1,
					"numoutlets" : 0,
					"patching_rect" : [ 390.0, 960.0, 185.0, 22.0 ],
					"text" : "out 6 @comment rightDownFront"
				}

			}
, 			{
				"box" : 				{
					"id" : "obj-13",
					"maxclass" : "newobj",
					"numinlets" : 1,
					"numoutlets" : 0,
					"patching_rect" : [ 318.0, 990.0, 178.0, 22.0 ],
					"text" : "out 5 @comment leftDownFront"
				}

			}
, 			{
				"box" : 				{
					"id" : "obj-16",
					"maxclass" : "newobj",
					"numinlets" : 0,
					"numoutlets" : 1,
					"outlettype" : [ "" ],
					"patching_rect" : [ 406.5, 30.0, 133.0, 22.0 ],
					"text" : "param perminability 15."
				}

			}
, 			{
				"box" : 				{
					"id" : "obj-9",
					"maxclass" : "newobj",
					"numinlets" : 0,
					"numoutlets" : 1,
					"outlettype" : [ "" ],
					"patching_rect" : [ 155.5, 60.0, 141.0, 22.0 ],
					"text" : "in 2 @comment distance"
				}

			}
, 			{
				"box" : 				{
					"id" : "obj-15",
					"maxclass" : "newobj",
					"numinlets" : 1,
					"numoutlets" : 0,
					"patching_rect" : [ 245.142857142857139, 1020.0, 169.0, 22.0 ],
					"text" : "out 4 @comment rightUpBack"
				}

			}
, 			{
				"box" : 				{
					"id" : "obj-4",
					"maxclass" : "newobj",
					"numinlets" : 1,
					"numoutlets" : 0,
					"patching_rect" : [ 173.428571428571416, 1050.0, 161.0, 22.0 ],
					"text" : "out 3 @comment leftUpBack"
				}

			}
, 			{
				"box" : 				{
					"code" : "audio = in1;\r\ndistance = in2;\r\nplane_x, plane_y, plane_z = in3, in4, in5;\r\n\r\n// get attenuation\r\nfactor =   distance / perminability;\r\nfactor2 = factor * factor;\r\ndamp = exp(- factor2) / perminability;\r\n\r\n// snaity check\r\nif(distance < 0.1)\r\n\tplane_x, plane_y, plane_z = 0, 0 , 0;\r\n\r\n// left / right\r\nright = scale(plane_x, -1, 1, 0, 1);\r\nleft = 1.0 - right;\r\n\r\n// front / back \r\nfront = scale(plane_y, -1, 1, 0, 1);\r\nback = 1.0 - front;\r\n\r\n\r\n// up / down\r\nup = scale(plane_z, -1, 1, 0, 1);\r\ndown = 1.0 - up;\r\n\r\n// mix\r\nleftUpFront = audio * damp * left * up * front;\r\nrightUpFront = audio * damp * right * up * front;\r\nleftUpBack = audio * damp * left * up * back;\r\nrightUpBack = audio * damp * right * up * back;\r\n\r\nleftDownFront = audio * damp * left * down * front;\r\nrightDownFront = audio * damp * right * down * front;\r\nleftDownBack = audio * damp * left * down * back;\r\nrightDownBack = audio * damp * right * down * back;\r\n\r\n// out\r\nout1 = leftUpFront;\r\nout2 = rightUpFront;\r\nout3 = leftUpBack;\r\nout4 = rightUpBack;\r\nout5 = leftDownFront;\r\nout6 = rightDownFront;\r\nout7 = leftDownBack;\r\nout8 = rightDownBack;\r\n",
					"fontface" : 0,
					"fontname" : "<Monospaced>",
					"fontsize" : 12.0,
					"id" : "obj-3",
					"maxclass" : "codebox",
					"numinlets" : 5,
					"numoutlets" : 8,
					"outlettype" : [ "", "", "", "", "", "", "", "" ],
					"patching_rect" : [ 30.0, 195.0, 521.0, 690.0 ]
				}

			}
, 			{
				"box" : 				{
					"id" : "obj-8",
					"maxclass" : "newobj",
					"numinlets" : 1,
					"numoutlets" : 0,
					"patching_rect" : [ 101.714285714285708, 1080.0, 170.0, 22.0 ],
					"text" : "out 2 @comment rightUpFront"
				}

			}
, 			{
				"box" : 				{
					"id" : "obj-7",
					"maxclass" : "newobj",
					"numinlets" : 1,
					"numoutlets" : 0,
					"patching_rect" : [ 30.0, 1110.0, 163.0, 22.0 ],
					"text" : "out 1 @comment leftUpFront"
				}

			}
, 			{
				"box" : 				{
					"id" : "obj-6",
					"maxclass" : "newobj",
					"numinlets" : 0,
					"numoutlets" : 1,
					"outlettype" : [ "" ],
					"patching_rect" : [ 532.0, 150.0, 138.0, 22.0 ],
					"text" : "in 5 @comment plane_z"
				}

			}
, 			{
				"box" : 				{
					"id" : "obj-5",
					"maxclass" : "newobj",
					"numinlets" : 0,
					"numoutlets" : 1,
					"outlettype" : [ "" ],
					"patching_rect" : [ 406.5, 120.0, 138.0, 22.0 ],
					"text" : "in 4 @comment plane_y"
				}

			}
, 			{
				"box" : 				{
					"id" : "obj-2",
					"maxclass" : "newobj",
					"numinlets" : 0,
					"numoutlets" : 1,
					"outlettype" : [ "" ],
					"patching_rect" : [ 281.0, 90.0, 138.0, 22.0 ],
					"text" : "in 3 @comment plane_x"
				}

			}
, 			{
				"box" : 				{
					"id" : "obj-1",
					"maxclass" : "newobj",
					"numinlets" : 0,
					"numoutlets" : 1,
					"outlettype" : [ "" ],
					"patching_rect" : [ 30.0, 30.0, 125.0, 22.0 ],
					"text" : "in 1 @comment audio"
				}

			}
 ],
		"lines" : [ 			{
				"patchline" : 				{
					"destination" : [ "obj-3", 0 ],
					"source" : [ "obj-1", 0 ]
				}

			}
, 			{
				"patchline" : 				{
					"destination" : [ "obj-3", 2 ],
					"source" : [ "obj-2", 0 ]
				}

			}
, 			{
				"patchline" : 				{
					"destination" : [ "obj-10", 0 ],
					"source" : [ "obj-3", 7 ]
				}

			}
, 			{
				"patchline" : 				{
					"destination" : [ "obj-11", 0 ],
					"source" : [ "obj-3", 6 ]
				}

			}
, 			{
				"patchline" : 				{
					"destination" : [ "obj-12", 0 ],
					"source" : [ "obj-3", 5 ]
				}

			}
, 			{
				"patchline" : 				{
					"destination" : [ "obj-13", 0 ],
					"source" : [ "obj-3", 4 ]
				}

			}
, 			{
				"patchline" : 				{
					"destination" : [ "obj-15", 0 ],
					"source" : [ "obj-3", 3 ]
				}

			}
, 			{
				"patchline" : 				{
					"destination" : [ "obj-4", 0 ],
					"source" : [ "obj-3", 2 ]
				}

			}
, 			{
				"patchline" : 				{
					"destination" : [ "obj-7", 0 ],
					"source" : [ "obj-3", 0 ]
				}

			}
, 			{
				"patchline" : 				{
					"destination" : [ "obj-8", 0 ],
					"source" : [ "obj-3", 1 ]
				}

			}
, 			{
				"patchline" : 				{
					"destination" : [ "obj-3", 3 ],
					"source" : [ "obj-5", 0 ]
				}

			}
, 			{
				"patchline" : 				{
					"destination" : [ "obj-3", 4 ],
					"source" : [ "obj-6", 0 ]
				}

			}
, 			{
				"patchline" : 				{
					"destination" : [ "obj-3", 1 ],
					"source" : [ "obj-9", 0 ]
				}

			}
 ]
	}

}
