{
	"patcher" : 	{
		"fileversion" : 1,
		"appversion" : 		{
			"major" : 8,
			"minor" : 5,
			"revision" : 5,
			"architecture" : "x64",
			"modernui" : 1
		}
,
		"classnamespace" : "dsp.gen",
		"rect" : [ 34.0, 115.0, 3772.0, 1451.0 ],
		"bglocked" : 0,
		"openinpresentation" : 0,
		"default_fontsize" : 12.0,
		"default_fontface" : 0,
		"default_fontname" : "Arial",
		"gridonopen" : 2,
		"gridsize" : [ 15.0, 15.0 ],
		"gridsnaponopen" : 2,
		"objectsnaponopen" : 1,
		"statusbarvisible" : 2,
		"toolbarvisible" : 1,
		"lefttoolbarpinned" : 0,
		"toptoolbarpinned" : 0,
		"righttoolbarpinned" : 0,
		"bottomtoolbarpinned" : 0,
		"toolbars_unpinned_last_save" : 0,
		"tallnewobj" : 0,
		"boxanimatetime" : 200,
		"enablehscroll" : 1,
		"enablevscroll" : 1,
		"devicewidth" : 0.0,
		"description" : "",
		"digest" : "",
		"tags" : "",
		"style" : "",
		"subpatcher_template" : "OpenGrid",
		"assistshowspatchername" : 0,
		"boxes" : [ 			{
				"box" : 				{
					"id" : "obj-1",
					"maxclass" : "newobj",
					"numinlets" : 0,
					"numoutlets" : 1,
					"outlettype" : [ "" ],
					"patching_rect" : [ 686.0, 30.0, 138.0, 22.0 ],
					"text" : "in 4 @comment plane_z"
				}

			}
, 			{
				"box" : 				{
					"id" : "obj-12",
					"maxclass" : "newobj",
					"numinlets" : 0,
					"numoutlets" : 1,
					"outlettype" : [ "" ],
					"patching_rect" : [ 467.333333333333314, 30.0, 138.0, 22.0 ],
					"text" : "in 3 @comment plane_y"
				}

			}
, 			{
				"box" : 				{
					"id" : "obj-13",
					"maxclass" : "newobj",
					"numinlets" : 0,
					"numoutlets" : 1,
					"outlettype" : [ "" ],
					"patching_rect" : [ 248.666666666666629, 30.0, 138.0, 22.0 ],
					"text" : "in 2 @comment plane_x"
				}

			}
, 			{
				"box" : 				{
					"id" : "obj-16",
					"maxclass" : "newobj",
					"numinlets" : 0,
					"numoutlets" : 1,
					"outlettype" : [ "" ],
					"patching_rect" : [ 735.0, 120.0, 133.0, 22.0 ],
					"text" : "param perminability 15."
				}

			}
, 			{
				"box" : 				{
					"id" : "obj-15",
					"maxclass" : "newobj",
					"numinlets" : 1,
					"numoutlets" : 0,
					"patching_rect" : [ 686.0, 1185.0, 151.0, 22.0 ],
					"text" : "out 4 @comment elevation"
				}

			}
, 			{
				"box" : 				{
					"id" : "obj-4",
					"maxclass" : "newobj",
					"numinlets" : 1,
					"numoutlets" : 0,
					"patching_rect" : [ 467.333333333333314, 1185.0, 145.0, 22.0 ],
					"text" : "out 3 @comment azimuth"
				}

			}
, 			{
				"box" : 				{
					"code" : "require(\"linalg\");\r\n\r\nBuffer source(\"spatialSource\");\r\nBuffer targetLeft(\"spatialLeft\");\r\nBuffer targetRight(\"spatialRight\");\r\nBuffer indexMap(\"indexMap\");\r\nHistory index(0);\r\n\r\ndistance = in1;\r\nplane_x, plane_y, plane_z = in2, in3, in4;\r\n\r\n\r\n// get attenuation\r\nfactor =   distance / perminability;\r\nfactor2 = factor * factor;\r\ndamp = exp(- factor2) / perminability;\r\n\r\n// offset \r\ntargetOffset = (mc_channel - 1) * 200;\r\n\r\n// dir in plane\r\nradius, azimuth, elevation = cartToSphere(plane_x, plane_y, plane_z);\r\n\r\n\r\n// azimuth\r\nif(azimuth > (3 * HALFPI))\r\n\tazimuth = azimuth - (3 * HALFPI);\r\nelse\r\n\tazimuth = azimuth + HALFPI;\r\n\t\r\nazimuth = floor(azimuth * radtodeg);\r\n\t\r\n// inclinaton\r\nelevation = PI - elevation;\r\nelevation = floor(elevation * radtodeg);\r\n\r\n// index\r\nlookup = (azimuth * 180) + elevation;\r\nsourceOffset = peek(indexMap, lookup);\r\n// sourceOffset = floor(sourceOffset * 3276 * 100);\r\n\r\n// sample copy\r\nleft = peek(source, sourceOffset + index, 1);\r\npoke(targetLeft, left, targetOffset + index);\r\n\r\nright = peek(source, sourceOffset + index, 0);\r\npoke(targetRight, right, targetOffset + index);\r\n\r\nindex += 1;\r\nif(index >= 200)\r\n\tindex = 0;\r\n\r\n// out\r\nout1 = damp;\r\nout2 = targetOffset;\r\nout3 = azimuth;\r\nout4 = elevation;\r\n",
					"fontface" : 0,
					"fontname" : "<Monospaced>",
					"fontsize" : 12.0,
					"id" : "obj-3",
					"maxclass" : "codebox",
					"numinlets" : 4,
					"numoutlets" : 4,
					"outlettype" : [ "", "", "", "" ],
					"patching_rect" : [ 30.0, 75.0, 675.0, 990.0 ]
				}

			}
, 			{
				"box" : 				{
					"id" : "obj-8",
					"maxclass" : "newobj",
					"numinlets" : 1,
					"numoutlets" : 0,
					"patching_rect" : [ 248.666666666666629, 1185.0, 133.0, 22.0 ],
					"text" : "out 2 @comment offest"
				}

			}
, 			{
				"box" : 				{
					"id" : "obj-7",
					"maxclass" : "newobj",
					"numinlets" : 1,
					"numoutlets" : 0,
					"patching_rect" : [ 30.0, 1185.0, 133.0, 22.0 ],
					"text" : "out 1 @comment damp"
				}

			}
, 			{
				"box" : 				{
					"id" : "obj-5",
					"maxclass" : "newobj",
					"numinlets" : 0,
					"numoutlets" : 1,
					"outlettype" : [ "" ],
					"patching_rect" : [ 30.0, 30.0, 141.0, 22.0 ],
					"text" : "in 1 @comment distance"
				}

			}
 ],
		"lines" : [ 			{
				"patchline" : 				{
					"destination" : [ "obj-3", 3 ],
					"source" : [ "obj-1", 0 ]
				}

			}
, 			{
				"patchline" : 				{
					"destination" : [ "obj-3", 2 ],
					"source" : [ "obj-12", 0 ]
				}

			}
, 			{
				"patchline" : 				{
					"destination" : [ "obj-3", 1 ],
					"source" : [ "obj-13", 0 ]
				}

			}
, 			{
				"patchline" : 				{
					"destination" : [ "obj-15", 0 ],
					"source" : [ "obj-3", 3 ]
				}

			}
, 			{
				"patchline" : 				{
					"destination" : [ "obj-4", 0 ],
					"source" : [ "obj-3", 2 ]
				}

			}
, 			{
				"patchline" : 				{
					"destination" : [ "obj-7", 0 ],
					"source" : [ "obj-3", 0 ]
				}

			}
, 			{
				"patchline" : 				{
					"destination" : [ "obj-8", 0 ],
					"source" : [ "obj-3", 1 ]
				}

			}
, 			{
				"patchline" : 				{
					"destination" : [ "obj-3", 0 ],
					"source" : [ "obj-5", 0 ]
				}

			}
 ]
	}

}
