{
	"patcher" : 	{
		"fileversion" : 1,
		"appversion" : 		{
			"major" : 8,
			"minor" : 5,
			"revision" : 5,
			"architecture" : "x64",
			"modernui" : 1
		}
,
		"classnamespace" : "dsp.gen",
		"rect" : [ 34.0, 412.0, 3517.0, 1059.0 ],
		"bglocked" : 0,
		"openinpresentation" : 0,
		"default_fontsize" : 12.0,
		"default_fontface" : 0,
		"default_fontname" : "Arial",
		"gridonopen" : 2,
		"gridsize" : [ 15.0, 15.0 ],
		"gridsnaponopen" : 2,
		"objectsnaponopen" : 1,
		"statusbarvisible" : 2,
		"toolbarvisible" : 1,
		"lefttoolbarpinned" : 0,
		"toptoolbarpinned" : 0,
		"righttoolbarpinned" : 0,
		"bottomtoolbarpinned" : 0,
		"toolbars_unpinned_last_save" : 0,
		"tallnewobj" : 0,
		"boxanimatetime" : 200,
		"enablehscroll" : 1,
		"enablevscroll" : 1,
		"devicewidth" : 0.0,
		"description" : "",
		"digest" : "",
		"tags" : "",
		"style" : "",
		"subpatcher_template" : "OpenGrid",
		"assistshowspatchername" : 0,
		"boxes" : [ 			{
				"box" : 				{
					"id" : "obj-17",
					"maxclass" : "newobj",
					"numinlets" : 1,
					"numoutlets" : 0,
					"patching_rect" : [ 990.0, 1200.0, 35.0, 22.0 ],
					"text" : "out 5"
				}

			}
, 			{
				"box" : 				{
					"id" : "obj-16",
					"maxclass" : "newobj",
					"numinlets" : 0,
					"numoutlets" : 1,
					"outlettype" : [ "" ],
					"patching_rect" : [ 870.0, 120.0, 133.0, 22.0 ],
					"text" : "param perminability 15."
				}

			}
, 			{
				"box" : 				{
					"id" : "obj-15",
					"maxclass" : "newobj",
					"numinlets" : 1,
					"numoutlets" : 0,
					"patching_rect" : [ 806.0, 1200.0, 153.0, 22.0 ],
					"text" : "out 4 @comment rightBack"
				}

			}
, 			{
				"box" : 				{
					"id" : "obj-4",
					"maxclass" : "newobj",
					"numinlets" : 1,
					"numoutlets" : 0,
					"patching_rect" : [ 547.333333333333371, 1207.0, 146.0, 22.0 ],
					"text" : "out 3 @comment leftBack"
				}

			}
, 			{
				"box" : 				{
					"id" : "obj-12",
					"maxclass" : "newobj",
					"numinlets" : 0,
					"numoutlets" : 1,
					"outlettype" : [ "" ],
					"patching_rect" : [ 969.0, 90.0, 68.0, 22.0 ],
					"text" : "param lz 0."
				}

			}
, 			{
				"box" : 				{
					"id" : "obj-13",
					"maxclass" : "newobj",
					"numinlets" : 0,
					"numoutlets" : 1,
					"outlettype" : [ "" ],
					"patching_rect" : [ 969.0, 60.0, 68.0, 22.0 ],
					"text" : "param ly 1."
				}

			}
, 			{
				"box" : 				{
					"id" : "obj-14",
					"maxclass" : "newobj",
					"numinlets" : 0,
					"numoutlets" : 1,
					"outlettype" : [ "" ],
					"patching_rect" : [ 969.0, 30.0, 68.0, 22.0 ],
					"text" : "param lx 0."
				}

			}
, 			{
				"box" : 				{
					"code" : "require(\"tools\");\r\n\r\nperpendicularToLookat(look_x, look_y, look_z){\r\n\tperp_x, perp_y, perp_z = veccross(look_x, look_y, look_z, 0, 0, 1);\r\n\tcheckLength = veclength(perp_x, perp_y, perp_z);\r\n\tif(checkLength > 0.1){\r\n\t\treturn vecnorn(perp_x, perp_y, perp_z);\r\n\t}\r\n\telse {\r\n\t\tperp_x2, perp_y2, perp_z2 = veccross(look_x, look_y, look_z, 0, 1, 0);  \r\n\t\treturn vecnorn(perp_x2, perp_y2, perp_z2);\r\n\t}\t\t\r\n}\r\n\r\naudio = in1;\r\n\r\n// direction to source\r\ndir_x = in2 - x;\r\ndir_y = in3 - y;\r\ndir_z = in4 - z;\r\ndir_x, dir_y, dirz = vecnorn(dir_x, dir_y, dir_z);\r\ndistance = veclength(dir_x, dir_y, dir_z);\r\n\r\n// get attenuation\r\nfactor =   distance / perminability;\r\nfactor2 = factor * factor;\r\ndamp = exp(- factor2) / perminability;\r\n\r\n// angle to lookat\r\nlook_x, look_y, look_z = vecnorn(lx, ly, lz);\r\ndotSide = vecdot(dir_x, dir_y, dir_z, look_x, look_y, look_z);\r\n\r\n\r\n// get left / right\r\nsideAngle = acos(dotSide);\r\nif(sideAngle > HALFPI)\r\n\tsideAngle = PI - sideAngle;\r\n\r\ncross_x, cross_y, cross_z = veccross(look_x, look_y, look_z, dir_x, dir_y, dir_z);\r\nif(cross_z < 0.0)\r\n\tsideAngle *= -1.0;\r\n\r\nleft = scale(sideAngle, -PI, PI, 1., 0.);\r\nright = 1.0 - left;\r\n\r\n\r\n// get front / back\r\nperp_x, perp_y, perp_z = perpendicularToLookat(look_x, look_y, look_z);\r\ndotPerp = vecdot(dir_x, dir_y, dir_z, perp_x, perp_y, perp_z);\t\r\n\r\nperpAngle = acos(dotPerp);\r\n\r\nfront = 1.0;\r\nback = 1.0 - front;\r\n\r\n// out\r\nleftFront = audio * damp * left * front;\r\nrightFront = audio * damp * right * front;\r\nleftBack = audio * damp * left * back;\r\nrightBack = audio * damp * right * back;\r\n\r\nout1 = leftFront;\r\nout2 = rightFront;\r\n\r\nout3 = dotPerp;\r\nout4 = perpAngle;\r\nout5 = front;",
					"fontface" : 0,
					"fontname" : "<Monospaced>",
					"fontsize" : 12.0,
					"id" : "obj-3",
					"maxclass" : "codebox",
					"numinlets" : 4,
					"numoutlets" : 5,
					"outlettype" : [ "", "", "", "", "" ],
					"patching_rect" : [ 30.0, 90.0, 795.0, 1065.0 ]
				}

			}
, 			{
				"box" : 				{
					"id" : "obj-11",
					"maxclass" : "newobj",
					"numinlets" : 0,
					"numoutlets" : 1,
					"outlettype" : [ "" ],
					"patching_rect" : [ 870.0, 90.0, 65.0, 22.0 ],
					"text" : "param z 0."
				}

			}
, 			{
				"box" : 				{
					"id" : "obj-10",
					"maxclass" : "newobj",
					"numinlets" : 0,
					"numoutlets" : 1,
					"outlettype" : [ "" ],
					"patching_rect" : [ 870.0, 60.0, 65.0, 22.0 ],
					"text" : "param y 0."
				}

			}
, 			{
				"box" : 				{
					"id" : "obj-9",
					"maxclass" : "newobj",
					"numinlets" : 0,
					"numoutlets" : 1,
					"outlettype" : [ "" ],
					"patching_rect" : [ 870.0, 30.0, 65.0, 22.0 ],
					"text" : "param x 0."
				}

			}
, 			{
				"box" : 				{
					"id" : "obj-8",
					"maxclass" : "newobj",
					"numinlets" : 1,
					"numoutlets" : 0,
					"patching_rect" : [ 288.666666666666686, 1207.0, 155.0, 22.0 ],
					"text" : "out 2 @comment rightFront"
				}

			}
, 			{
				"box" : 				{
					"id" : "obj-7",
					"maxclass" : "newobj",
					"numinlets" : 1,
					"numoutlets" : 0,
					"patching_rect" : [ 30.0, 1207.0, 147.0, 22.0 ],
					"text" : "out 1 @comment leftFront"
				}

			}
, 			{
				"box" : 				{
					"id" : "obj-6",
					"maxclass" : "newobj",
					"numinlets" : 0,
					"numoutlets" : 1,
					"outlettype" : [ "" ],
					"patching_rect" : [ 510.0, 30.0, 145.0, 22.0 ],
					"text" : "in 4 @comment source_z"
				}

			}
, 			{
				"box" : 				{
					"id" : "obj-5",
					"maxclass" : "newobj",
					"numinlets" : 0,
					"numoutlets" : 1,
					"outlettype" : [ "" ],
					"patching_rect" : [ 345.0, 30.0, 145.0, 22.0 ],
					"text" : "in 3 @comment source_y"
				}

			}
, 			{
				"box" : 				{
					"id" : "obj-2",
					"maxclass" : "newobj",
					"numinlets" : 0,
					"numoutlets" : 1,
					"outlettype" : [ "" ],
					"patching_rect" : [ 180.0, 30.0, 145.0, 22.0 ],
					"text" : "in 2 @comment source_x"
				}

			}
, 			{
				"box" : 				{
					"id" : "obj-1",
					"maxclass" : "newobj",
					"numinlets" : 0,
					"numoutlets" : 1,
					"outlettype" : [ "" ],
					"patching_rect" : [ 30.0, 30.0, 125.0, 22.0 ],
					"text" : "in 1 @comment audio"
				}

			}
 ],
		"lines" : [ 			{
				"patchline" : 				{
					"destination" : [ "obj-3", 0 ],
					"source" : [ "obj-1", 0 ]
				}

			}
, 			{
				"patchline" : 				{
					"destination" : [ "obj-3", 1 ],
					"source" : [ "obj-2", 0 ]
				}

			}
, 			{
				"patchline" : 				{
					"destination" : [ "obj-15", 0 ],
					"source" : [ "obj-3", 3 ]
				}

			}
, 			{
				"patchline" : 				{
					"destination" : [ "obj-17", 0 ],
					"source" : [ "obj-3", 4 ]
				}

			}
, 			{
				"patchline" : 				{
					"destination" : [ "obj-4", 0 ],
					"source" : [ "obj-3", 2 ]
				}

			}
, 			{
				"patchline" : 				{
					"destination" : [ "obj-7", 0 ],
					"source" : [ "obj-3", 0 ]
				}

			}
, 			{
				"patchline" : 				{
					"destination" : [ "obj-8", 0 ],
					"source" : [ "obj-3", 1 ]
				}

			}
, 			{
				"patchline" : 				{
					"destination" : [ "obj-3", 2 ],
					"source" : [ "obj-5", 0 ]
				}

			}
, 			{
				"patchline" : 				{
					"destination" : [ "obj-3", 3 ],
					"source" : [ "obj-6", 0 ]
				}

			}
 ]
	}

}
