{
	"patcher" : 	{
		"fileversion" : 1,
		"appversion" : 		{
			"major" : 8,
			"minor" : 6,
			"revision" : 1,
			"architecture" : "x64",
			"modernui" : 1
		}
,
		"classnamespace" : "box",
		"rect" : [ 1954.0, 115.0, 1037.0, 1451.0 ],
		"bglocked" : 0,
		"openinpresentation" : 1,
		"default_fontsize" : 12.0,
		"default_fontface" : 0,
		"default_fontname" : "Arial",
		"gridonopen" : 2,
		"gridsize" : [ 15.0, 15.0 ],
		"gridsnaponopen" : 2,
		"objectsnaponopen" : 1,
		"statusbarvisible" : 2,
		"toolbarvisible" : 1,
		"lefttoolbarpinned" : 0,
		"toptoolbarpinned" : 0,
		"righttoolbarpinned" : 0,
		"bottomtoolbarpinned" : 0,
		"toolbars_unpinned_last_save" : 0,
		"tallnewobj" : 0,
		"boxanimatetime" : 200,
		"enablehscroll" : 1,
		"enablevscroll" : 1,
		"devicewidth" : 0.0,
		"description" : "",
		"digest" : "",
		"tags" : "",
		"style" : "",
		"subpatcher_template" : "wa.main_template",
		"assistshowspatchername" : 0,
		"boxes" : [ 			{
				"box" : 				{
					"id" : "obj-1",
					"maxclass" : "newobj",
					"numinlets" : 0,
					"numoutlets" : 1,
					"outlettype" : [ "" ],
					"patching_rect" : [ 180.0, 30.0, 107.0, 22.0 ],
					"style" : "wa.admin",
					"text" : "wa.patch.bpatcher"
				}

			}
, 			{
				"box" : 				{
					"fontface" : 1,
					"id" : "obj-2",
					"maxclass" : "comment",
					"numinlets" : 1,
					"numoutlets" : 0,
					"patching_rect" : [ 30.0, 180.0, 34.0, 20.0 ],
					"presentation" : 1,
					"presentation_rect" : [ 0.0, -2.5, 34.0, 20.0 ],
					"text" : "CPU"
				}

			}
, 			{
				"box" : 				{
					"id" : "obj-18",
					"maxclass" : "newobj",
					"numinlets" : 2,
					"numoutlets" : 1,
					"outlettype" : [ "float" ],
					"patching_rect" : [ 30.0, 120.0, 39.0, 22.0 ],
					"text" : "/ 100."
				}

			}
, 			{
				"box" : 				{
					"id" : "obj-17",
					"maxclass" : "live.meter~",
					"mode" : 1,
					"numinlets" : 1,
					"numoutlets" : 2,
					"orientation" : 1,
					"outlettype" : [ "float", "int" ],
					"patching_rect" : [ 30.0, 165.0, 100.0, 5.0 ],
					"presentation" : 1,
					"presentation_rect" : [ 36.0, 0.0, 100.0, 15.0 ]
				}

			}
, 			{
				"box" : 				{
					"id" : "obj-12",
					"maxclass" : "newobj",
					"numinlets" : 2,
					"numoutlets" : 1,
					"outlettype" : [ "bang" ],
					"patching_rect" : [ 30.0, 30.0, 119.0, 22.0 ],
					"text" : "metro 500 @active 1"
				}

			}
, 			{
				"box" : 				{
					"id" : "obj-11",
					"maxclass" : "newobj",
					"numinlets" : 2,
					"numoutlets" : 2,
					"outlettype" : [ "", "int" ],
					"patching_rect" : [ 30.0, 75.0, 77.0, 22.0 ],
					"text" : "adstatus cpu"
				}

			}
 ],
		"lines" : [ 			{
				"patchline" : 				{
					"destination" : [ "obj-18", 0 ],
					"source" : [ "obj-11", 0 ]
				}

			}
, 			{
				"patchline" : 				{
					"destination" : [ "obj-11", 0 ],
					"source" : [ "obj-12", 0 ]
				}

			}
, 			{
				"patchline" : 				{
					"destination" : [ "obj-17", 0 ],
					"source" : [ "obj-18", 0 ]
				}

			}
 ],
		"styles" : [ 			{
				"name" : "wa.admin",
				"default" : 				{
					"accentcolor" : [ 0.239216, 0.254902, 0.278431, 1.0 ],
					"bgcolor" : [ 0.784314, 0.145098, 0.023529, 1.0 ]
				}
,
				"parentstyle" : "",
				"multi" : 0
			}
 ]
	}

}
