{
	"patcher" : 	{
		"fileversion" : 1,
		"appversion" : 		{
			"major" : 8,
			"minor" : 6,
			"revision" : 1,
			"architecture" : "x64",
			"modernui" : 1
		}
,
		"classnamespace" : "box",
		"rect" : [ 34.0, 115.0, 3055.0, 1451.0 ],
		"bglocked" : 0,
		"openinpresentation" : 1,
		"default_fontsize" : 12.0,
		"default_fontface" : 0,
		"default_fontname" : "Arial",
		"gridonopen" : 2,
		"gridsize" : [ 15.0, 15.0 ],
		"gridsnaponopen" : 2,
		"objectsnaponopen" : 1,
		"statusbarvisible" : 2,
		"toolbarvisible" : 1,
		"lefttoolbarpinned" : 0,
		"toptoolbarpinned" : 0,
		"righttoolbarpinned" : 0,
		"bottomtoolbarpinned" : 0,
		"toolbars_unpinned_last_save" : 0,
		"tallnewobj" : 0,
		"boxanimatetime" : 200,
		"enablehscroll" : 1,
		"enablevscroll" : 1,
		"devicewidth" : 0.0,
		"description" : "",
		"digest" : "",
		"tags" : "",
		"style" : "",
		"subpatcher_template" : "",
		"assistshowspatchername" : 0,
		"boxes" : [ 			{
				"box" : 				{
					"id" : "obj-35",
					"maxclass" : "newobj",
					"numinlets" : 1,
					"numoutlets" : 1,
					"outlettype" : [ "" ],
					"patching_rect" : [ 91.0, 472.0, 25.0, 22.0 ],
					"text" : "iter"
				}

			}
, 			{
				"box" : 				{
					"id" : "obj-19",
					"maxclass" : "newobj",
					"numinlets" : 1,
					"numoutlets" : 2,
					"outlettype" : [ "bang", "int" ],
					"patching_rect" : [ 47.0, 255.0, 63.0, 22.0 ],
					"text" : "trigger b 1"
				}

			}
, 			{
				"box" : 				{
					"id" : "obj-17",
					"maxclass" : "newobj",
					"numinlets" : 1,
					"numoutlets" : 2,
					"outlettype" : [ "clear", "bang" ],
					"patching_rect" : [ 91.0, 345.0, 82.0, 22.0 ],
					"text" : "trigger clear b"
				}

			}
, 			{
				"box" : 				{
					"id" : "obj-16",
					"maxclass" : "newobj",
					"numinlets" : 2,
					"numoutlets" : 3,
					"outlettype" : [ "", "", "" ],
					"patching_rect" : [ 91.0, 390.0, 118.0, 22.0 ],
					"saved_object_attributes" : 					{
						"parameter_enable" : 0,
						"parameter_mappable" : 0
					}
,
					"style" : "wa.buffer",
					"text" : "array @name queue"
				}

			}
, 			{
				"box" : 				{
					"id" : "obj-15",
					"maxclass" : "newobj",
					"numinlets" : 1,
					"numoutlets" : 1,
					"outlettype" : [ "" ],
					"patching_rect" : [ 91.0, 435.0, 63.0, 22.0 ],
					"text" : "array.tolist"
				}

			}
, 			{
				"box" : 				{
					"id" : "obj-14",
					"maxclass" : "newobj",
					"numinlets" : 2,
					"numoutlets" : 1,
					"outlettype" : [ "" ],
					"patching_rect" : [ 91.0, 300.0, 42.0, 22.0 ],
					"text" : "gate 1"
				}

			}
, 			{
				"box" : 				{
					"id" : "obj-13",
					"maxclass" : "newobj",
					"numinlets" : 1,
					"numoutlets" : 2,
					"outlettype" : [ "bang", "" ],
					"patching_rect" : [ 91.0, 129.0, 62.0, 22.0 ],
					"text" : "trigger b s"
				}

			}
, 			{
				"box" : 				{
					"id" : "obj-12",
					"maxclass" : "newobj",
					"numinlets" : 1,
					"numoutlets" : 1,
					"outlettype" : [ "" ],
					"patching_rect" : [ 135.0, 180.0, 96.0, 22.0 ],
					"text" : "prepend append"
				}

			}
, 			{
				"box" : 				{
					"id" : "obj-11",
					"maxclass" : "newobj",
					"numinlets" : 2,
					"numoutlets" : 3,
					"outlettype" : [ "", "", "" ],
					"patching_rect" : [ 135.0, 225.0, 118.0, 22.0 ],
					"saved_object_attributes" : 					{
						"parameter_enable" : 0,
						"parameter_mappable" : 0
					}
,
					"style" : "wa.buffer",
					"text" : "array @name queue"
				}

			}
, 			{
				"box" : 				{
					"id" : "obj-7",
					"maxclass" : "newobj",
					"numinlets" : 1,
					"numoutlets" : 0,
					"patching_rect" : [ 178.5, 885.0, 78.0, 22.0 ],
					"text" : "print DEBUG"
				}

			}
, 			{
				"box" : 				{
					"id" : "obj-4",
					"maxclass" : "newobj",
					"numinlets" : 2,
					"numoutlets" : 2,
					"outlettype" : [ "bang", "" ],
					"patching_rect" : [ 90.0, 885.0, 63.0, 22.0 ],
					"text" : "select 200"
				}

			}
, 			{
				"box" : 				{
					"id" : "obj-3",
					"maxclass" : "newobj",
					"numinlets" : 3,
					"numoutlets" : 3,
					"outlettype" : [ "", "", "" ],
					"patching_rect" : [ 90.0, 840.0, 141.0, 22.0 ],
					"text" : "route onloadend DEBUG"
				}

			}
, 			{
				"box" : 				{
					"id" : "obj-6",
					"maxclass" : "newobj",
					"numinlets" : 1,
					"numoutlets" : 1,
					"outlettype" : [ "" ],
					"patching_rect" : [ 90.0, 516.0, 125.0, 22.0 ],
					"text" : "prepend addMessage"
				}

			}
, 			{
				"box" : 				{
					"id" : "obj-5",
					"maxclass" : "message",
					"numinlets" : 2,
					"numoutlets" : 1,
					"outlettype" : [ "" ],
					"patching_rect" : [ 240.0, 516.0, 291.0, 22.0 ],
					"text" : "readfile maxgui.html?content=other/debug_window.js"
				}

			}
, 			{
				"box" : 				{
					"id" : "obj-2",
					"maxclass" : "jweb",
					"numinlets" : 1,
					"numoutlets" : 1,
					"outlettype" : [ "" ],
					"patching_rect" : [ 90.0, 576.0, 255.0, 240.0 ],
					"presentation" : 1,
					"presentation_rect" : [ 0.0, 0.0, 255.0, 240.0 ],
					"rendermode" : 2,
					"url" : "file:///Volumes/ExternalData/_Home/GitHub/MusicProjects/Max/WaMaxPackage/media/maxgui.html?content=other/debug_window.js"
				}

			}
, 			{
				"box" : 				{
					"id" : "obj-9",
					"maxclass" : "newobj",
					"numinlets" : 1,
					"numoutlets" : 1,
					"outlettype" : [ "" ],
					"patching_rect" : [ 90.0, 90.0, 57.0, 22.0 ],
					"text" : "tosymbol"
				}

			}
, 			{
				"box" : 				{
					"id" : "obj-1",
					"maxclass" : "newobj",
					"numinlets" : 0,
					"numoutlets" : 1,
					"outlettype" : [ "" ],
					"patching_rect" : [ 150.0, 34.0, 107.0, 22.0 ],
					"style" : "wa.admin",
					"text" : "wa.patch.bpatcher"
				}

			}
, 			{
				"box" : 				{
					"comment" : "",
					"id" : "obj-32",
					"index" : 0,
					"maxclass" : "inlet",
					"numinlets" : 0,
					"numoutlets" : 1,
					"outlettype" : [ "" ],
					"patching_rect" : [ 90.0, 30.0, 30.0, 30.0 ]
				}

			}
 ],
		"lines" : [ 			{
				"patchline" : 				{
					"destination" : [ "obj-11", 0 ],
					"source" : [ "obj-12", 0 ]
				}

			}
, 			{
				"patchline" : 				{
					"destination" : [ "obj-12", 0 ],
					"source" : [ "obj-13", 1 ]
				}

			}
, 			{
				"patchline" : 				{
					"destination" : [ "obj-14", 1 ],
					"source" : [ "obj-13", 0 ]
				}

			}
, 			{
				"patchline" : 				{
					"destination" : [ "obj-17", 0 ],
					"source" : [ "obj-14", 0 ]
				}

			}
, 			{
				"patchline" : 				{
					"destination" : [ "obj-35", 0 ],
					"source" : [ "obj-15", 0 ]
				}

			}
, 			{
				"patchline" : 				{
					"destination" : [ "obj-15", 0 ],
					"source" : [ "obj-16", 0 ]
				}

			}
, 			{
				"patchline" : 				{
					"destination" : [ "obj-16", 0 ],
					"source" : [ "obj-17", 1 ]
				}

			}
, 			{
				"patchline" : 				{
					"destination" : [ "obj-16", 0 ],
					"source" : [ "obj-17", 0 ]
				}

			}
, 			{
				"patchline" : 				{
					"destination" : [ "obj-14", 0 ],
					"source" : [ "obj-19", 1 ]
				}

			}
, 			{
				"patchline" : 				{
					"destination" : [ "obj-14", 1 ],
					"source" : [ "obj-19", 0 ]
				}

			}
, 			{
				"patchline" : 				{
					"destination" : [ "obj-3", 0 ],
					"source" : [ "obj-2", 0 ]
				}

			}
, 			{
				"patchline" : 				{
					"destination" : [ "obj-4", 0 ],
					"source" : [ "obj-3", 0 ]
				}

			}
, 			{
				"patchline" : 				{
					"destination" : [ "obj-9", 0 ],
					"source" : [ "obj-32", 0 ]
				}

			}
, 			{
				"patchline" : 				{
					"destination" : [ "obj-6", 0 ],
					"source" : [ "obj-35", 0 ]
				}

			}
, 			{
				"patchline" : 				{
					"destination" : [ "obj-19", 0 ],
					"midpoints" : [ 99.5, 927.0, 33.0, 927.0, 33.0, 249.0, 56.5, 249.0 ],
					"source" : [ "obj-4", 0 ]
				}

			}
, 			{
				"patchline" : 				{
					"destination" : [ "obj-2", 0 ],
					"source" : [ "obj-5", 0 ]
				}

			}
, 			{
				"patchline" : 				{
					"destination" : [ "obj-2", 0 ],
					"source" : [ "obj-6", 0 ]
				}

			}
, 			{
				"patchline" : 				{
					"destination" : [ "obj-13", 0 ],
					"source" : [ "obj-9", 0 ]
				}

			}
 ],
		"autosave" : 0,
		"styles" : [ 			{
				"name" : "wa.admin",
				"default" : 				{
					"accentcolor" : [ 0.239216, 0.254902, 0.278431, 1.0 ],
					"bgcolor" : [ 0.784314, 0.145098, 0.023529, 1.0 ]
				}
,
				"parentstyle" : "",
				"multi" : 0
			}
, 			{
				"name" : "wa.buffer",
				"default" : 				{
					"accentcolor" : [ 0.317647, 0.654902, 0.976471, 1.0 ]
				}
,
				"parentstyle" : "",
				"multi" : 0
			}
 ]
	}

}
