{
	"patcher" : 	{
		"fileversion" : 1,
		"appversion" : 		{
			"major" : 8,
			"minor" : 6,
			"revision" : 0,
			"architecture" : "x64",
			"modernui" : 1
		}
,
		"classnamespace" : "box",
		"rect" : [ 34.0, 199.0, 3765.0, 1367.0 ],
		"bglocked" : 0,
		"openinpresentation" : 1,
		"default_fontsize" : 12.0,
		"default_fontface" : 0,
		"default_fontname" : "Arial",
		"gridonopen" : 2,
		"gridsize" : [ 15.0, 15.0 ],
		"gridsnaponopen" : 2,
		"objectsnaponopen" : 1,
		"statusbarvisible" : 2,
		"toolbarvisible" : 1,
		"lefttoolbarpinned" : 0,
		"toptoolbarpinned" : 0,
		"righttoolbarpinned" : 0,
		"bottomtoolbarpinned" : 0,
		"toolbars_unpinned_last_save" : 0,
		"tallnewobj" : 0,
		"boxanimatetime" : 200,
		"enablehscroll" : 1,
		"enablevscroll" : 1,
		"devicewidth" : 0.0,
		"description" : "",
		"digest" : "",
		"tags" : "",
		"style" : "",
		"subpatcher_template" : "OpenGrid",
		"assistshowspatchername" : 0,
		"boxes" : [ 			{
				"box" : 				{
					"id" : "obj-19",
					"maxclass" : "newobj",
					"numinlets" : 2,
					"numoutlets" : 1,
					"outlettype" : [ "bang" ],
					"patching_rect" : [ 540.0, 135.0, 61.0, 22.0 ],
					"text" : "delay 100"
				}

			}
, 			{
				"box" : 				{
					"id" : "obj-18",
					"maxclass" : "newobj",
					"numinlets" : 2,
					"numoutlets" : 2,
					"outlettype" : [ "", "" ],
					"patching_rect" : [ 540.0, 90.0, 77.0, 22.0 ],
					"text" : "route restore"
				}

			}
, 			{
				"box" : 				{
					"id" : "obj-4",
					"maxclass" : "newobj",
					"numinlets" : 1,
					"numoutlets" : 6,
					"outlettype" : [ "signal", "bang", "int", "float", "", "list" ],
					"patching_rect" : [ 540.0, 180.0, 71.5, 22.0 ],
					"text" : "typeroute~"
				}

			}
, 			{
				"box" : 				{
					"id" : "obj-11",
					"maxclass" : "newobj",
					"numinlets" : 1,
					"numoutlets" : 3,
					"outlettype" : [ "", "", "" ],
					"patching_rect" : [ 411.5, 45.0, 52.0, 22.0 ],
					"restore" : [ 30.0 ],
					"saved_object_attributes" : 					{
						"parameter_enable" : 0,
						"parameter_mappable" : 0
					}
,
					"text" : "pattr filF",
					"varname" : "filF"
				}

			}
, 			{
				"box" : 				{
					"id" : "obj-12",
					"maxclass" : "newobj",
					"numinlets" : 1,
					"numoutlets" : 3,
					"outlettype" : [ "", "", "" ],
					"patching_rect" : [ 302.0, 150.0, 65.0, 22.0 ],
					"restore" : [ 0.0 ],
					"saved_object_attributes" : 					{
						"parameter_enable" : 0,
						"parameter_mappable" : 0
					}
,
					"text" : "pattr noise",
					"varname" : "noise"
				}

			}
, 			{
				"box" : 				{
					"id" : "obj-13",
					"maxclass" : "newobj",
					"numinlets" : 1,
					"numoutlets" : 3,
					"outlettype" : [ "", "", "" ],
					"patching_rect" : [ 197.0, 150.0, 55.0, 22.0 ],
					"restore" : [ 0.0 ],
					"saved_object_attributes" : 					{
						"parameter_enable" : 0,
						"parameter_mappable" : 0
					}
,
					"text" : "pattr mix",
					"varname" : "mix"
				}

			}
, 			{
				"box" : 				{
					"id" : "obj-14",
					"maxclass" : "newobj",
					"numinlets" : 1,
					"numoutlets" : 3,
					"outlettype" : [ "", "", "" ],
					"patching_rect" : [ 99.0, 150.0, 62.0, 22.0 ],
					"restore" : [ 50.0 ],
					"saved_object_attributes" : 					{
						"parameter_enable" : 0,
						"parameter_mappable" : 0
					}
,
					"text" : "pattr base",
					"varname" : "base"
				}

			}
, 			{
				"box" : 				{
					"id" : "obj-10",
					"maxclass" : "newobj",
					"numinlets" : 1,
					"numoutlets" : 3,
					"outlettype" : [ "", "", "" ],
					"patching_rect" : [ 458.0, 180.0, 54.0, 22.0 ],
					"restore" : [ 0.0 ],
					"saved_object_attributes" : 					{
						"parameter_enable" : 0,
						"parameter_mappable" : 0
					}
,
					"text" : "pattr filQ",
					"varname" : "filQ"
				}

			}
, 			{
				"box" : 				{
					"id" : "obj-9",
					"maxclass" : "newobj",
					"numinlets" : 1,
					"numoutlets" : 3,
					"outlettype" : [ "", "", "" ],
					"patching_rect" : [ 345.0, 180.0, 59.0, 22.0 ],
					"restore" : [ 10.0 ],
					"saved_object_attributes" : 					{
						"parameter_enable" : 0,
						"parameter_mappable" : 0
					}
,
					"text" : "pattr nlen",
					"varname" : "nlen"
				}

			}
, 			{
				"box" : 				{
					"id" : "obj-8",
					"maxclass" : "newobj",
					"numinlets" : 1,
					"numoutlets" : 3,
					"outlettype" : [ "", "", "" ],
					"patching_rect" : [ 240.0, 180.0, 59.0, 22.0 ],
					"restore" : [ 10.0 ],
					"saved_object_attributes" : 					{
						"parameter_enable" : 0,
						"parameter_mappable" : 0
					}
,
					"text" : "pattr elen",
					"varname" : "elen"
				}

			}
, 			{
				"box" : 				{
					"id" : "obj-7",
					"maxclass" : "newobj",
					"numinlets" : 1,
					"numoutlets" : 3,
					"outlettype" : [ "", "", "" ],
					"patching_rect" : [ 142.0, 180.0, 55.0, 22.0 ],
					"restore" : [ 10.0 ],
					"saved_object_attributes" : 					{
						"parameter_enable" : 0,
						"parameter_mappable" : 0
					}
,
					"text" : "pattr flen",
					"varname" : "flen"
				}

			}
, 			{
				"box" : 				{
					"id" : "obj-6",
					"maxclass" : "newobj",
					"numinlets" : 1,
					"numoutlets" : 3,
					"outlettype" : [ "", "", "" ],
					"patching_rect" : [ 39.0, 180.0, 62.0, 22.0 ],
					"restore" : [ 100.0 ],
					"saved_object_attributes" : 					{
						"parameter_enable" : 0,
						"parameter_mappable" : 0
					}
,
					"text" : "pattr peak",
					"varname" : "peak"
				}

			}
, 			{
				"box" : 				{
					"id" : "obj-43",
					"maxclass" : "comment",
					"numinlets" : 1,
					"numoutlets" : 0,
					"patching_rect" : [ 212.0, 390.0, 90.0, 20.0 ],
					"presentation" : 1,
					"presentation_rect" : [ 167.0, 150.0, 90.0, 20.0 ],
					"text" : "sound",
					"textcolor" : [ 0.862745, 0.870588, 0.878431, 1.0 ],
					"textjustification" : 1
				}

			}
, 			{
				"box" : 				{
					"id" : "obj-42",
					"maxclass" : "comment",
					"numinlets" : 1,
					"numoutlets" : 0,
					"patching_rect" : [ 428.0, 390.0, 90.0, 20.0 ],
					"presentation" : 1,
					"presentation_rect" : [ 383.0, 150.0, 90.0, 20.0 ],
					"text" : "filter",
					"textcolor" : [ 0.862745, 0.870588, 0.878431, 1.0 ],
					"textjustification" : 1
				}

			}
, 			{
				"box" : 				{
					"id" : "obj-41",
					"maxclass" : "comment",
					"numinlets" : 1,
					"numoutlets" : 0,
					"patching_rect" : [ 317.0, 390.0, 90.0, 20.0 ],
					"presentation" : 1,
					"presentation_rect" : [ 272.0, 150.0, 90.0, 20.0 ],
					"text" : "noise",
					"textcolor" : [ 0.862745, 0.870588, 0.878431, 1.0 ],
					"textjustification" : 1
				}

			}
, 			{
				"box" : 				{
					"id" : "obj-40",
					"maxclass" : "comment",
					"numinlets" : 1,
					"numoutlets" : 0,
					"patching_rect" : [ 60.0, 390.0, 135.0, 20.0 ],
					"presentation" : 1,
					"presentation_rect" : [ 15.0, 150.0, 135.0, 20.0 ],
					"text" : "frequency",
					"textcolor" : [ 0.862745, 0.870588, 0.878431, 1.0 ],
					"textjustification" : 1
				}

			}
, 			{
				"box" : 				{
					"id" : "obj-38",
					"maxclass" : "live.slider",
					"numinlets" : 1,
					"numoutlets" : 2,
					"outlettype" : [ "", "float" ],
					"parameter_enable" : 1,
					"patching_rect" : [ 475.0, 255.0, 45.0, 125.0 ],
					"presentation" : 1,
					"presentation_rect" : [ 430.0, 15.0, 45.0, 125.0 ],
					"saved_attribute_attributes" : 					{
						"textcolor" : 						{
							"expression" : ""
						}
,
						"valueof" : 						{
							"parameter_longname" : "filterQ",
							"parameter_mmax" : 100.0,
							"parameter_shortname" : "Q",
							"parameter_type" : 0,
							"parameter_unitstyle" : 5
						}

					}
,
					"textcolor" : [ 0.862745, 0.870588, 0.878431, 1.0 ],
					"varname" : "live.slider[8]"
				}

			}
, 			{
				"box" : 				{
					"id" : "obj-37",
					"maxclass" : "live.slider",
					"numinlets" : 1,
					"numoutlets" : 2,
					"outlettype" : [ "", "float" ],
					"parameter_enable" : 1,
					"patching_rect" : [ 428.0, 255.0, 45.0, 125.0 ],
					"presentation" : 1,
					"presentation_rect" : [ 383.0, 15.0, 45.0, 125.0 ],
					"saved_attribute_attributes" : 					{
						"textcolor" : 						{
							"expression" : ""
						}
,
						"valueof" : 						{
							"parameter_exponent" : 2.0,
							"parameter_longname" : "filterFreq",
							"parameter_mmax" : 2000.0,
							"parameter_mmin" : 30.0,
							"parameter_shortname" : "freq",
							"parameter_type" : 0,
							"parameter_unitstyle" : 3
						}

					}
,
					"textcolor" : [ 0.862745, 0.870588, 0.878431, 1.0 ],
					"varname" : "live.slider[7]"
				}

			}
, 			{
				"box" : 				{
					"id" : "obj-36",
					"maxclass" : "live.slider",
					"numinlets" : 1,
					"numoutlets" : 2,
					"outlettype" : [ "", "float" ],
					"parameter_enable" : 1,
					"patching_rect" : [ 362.0, 255.0, 45.0, 125.0 ],
					"presentation" : 1,
					"presentation_rect" : [ 317.0, 15.0, 45.0, 125.0 ],
					"saved_attribute_attributes" : 					{
						"textcolor" : 						{
							"expression" : ""
						}
,
						"valueof" : 						{
							"parameter_exponent" : 1.5,
							"parameter_longname" : "n_length",
							"parameter_mmax" : 1000.0,
							"parameter_mmin" : 10.0,
							"parameter_shortname" : "length",
							"parameter_type" : 0,
							"parameter_unitstyle" : 2
						}

					}
,
					"textcolor" : [ 0.862745, 0.870588, 0.878431, 1.0 ],
					"varname" : "live.slider[6]"
				}

			}
, 			{
				"box" : 				{
					"id" : "obj-35",
					"maxclass" : "live.slider",
					"numinlets" : 1,
					"numoutlets" : 2,
					"outlettype" : [ "", "float" ],
					"parameter_enable" : 1,
					"patching_rect" : [ 315.0, 255.0, 45.0, 125.0 ],
					"presentation" : 1,
					"presentation_rect" : [ 270.0, 15.0, 45.0, 125.0 ],
					"saved_attribute_attributes" : 					{
						"textcolor" : 						{
							"expression" : ""
						}
,
						"valueof" : 						{
							"parameter_longname" : "noise",
							"parameter_mmax" : 100.0,
							"parameter_shortname" : "noise",
							"parameter_type" : 0,
							"parameter_unitstyle" : 5
						}

					}
,
					"textcolor" : [ 0.862745, 0.870588, 0.878431, 1.0 ],
					"varname" : "live.slider[5]"
				}

			}
, 			{
				"box" : 				{
					"id" : "obj-34",
					"maxclass" : "live.slider",
					"numinlets" : 1,
					"numoutlets" : 2,
					"outlettype" : [ "", "float" ],
					"parameter_enable" : 1,
					"patching_rect" : [ 257.0, 255.0, 45.0, 125.0 ],
					"presentation" : 1,
					"presentation_rect" : [ 212.0, 15.0, 45.0, 125.0 ],
					"saved_attribute_attributes" : 					{
						"textcolor" : 						{
							"expression" : ""
						}
,
						"valueof" : 						{
							"parameter_exponent" : 1.5,
							"parameter_longname" : "a_length",
							"parameter_mmax" : 1000.0,
							"parameter_mmin" : 10.0,
							"parameter_shortname" : "length",
							"parameter_type" : 0,
							"parameter_unitstyle" : 2
						}

					}
,
					"textcolor" : [ 0.862745, 0.870588, 0.878431, 1.0 ],
					"varname" : "live.slider[4]"
				}

			}
, 			{
				"box" : 				{
					"id" : "obj-33",
					"maxclass" : "live.slider",
					"numinlets" : 1,
					"numoutlets" : 2,
					"outlettype" : [ "", "float" ],
					"parameter_enable" : 1,
					"patching_rect" : [ 210.0, 255.0, 45.0, 125.0 ],
					"presentation" : 1,
					"presentation_rect" : [ 165.0, 15.0, 45.0, 125.0 ],
					"saved_attribute_attributes" : 					{
						"textcolor" : 						{
							"expression" : ""
						}
,
						"valueof" : 						{
							"parameter_longname" : "mix",
							"parameter_mmax" : 100.0,
							"parameter_shortname" : "mix",
							"parameter_type" : 0,
							"parameter_unitstyle" : 5
						}

					}
,
					"textcolor" : [ 0.862745, 0.870588, 0.878431, 1.0 ],
					"varname" : "live.slider[3]"
				}

			}
, 			{
				"box" : 				{
					"id" : "obj-32",
					"maxclass" : "live.slider",
					"numinlets" : 1,
					"numoutlets" : 2,
					"outlettype" : [ "", "float" ],
					"parameter_enable" : 1,
					"patching_rect" : [ 150.0, 255.0, 45.0, 125.0 ],
					"presentation" : 1,
					"presentation_rect" : [ 105.0, 15.0, 45.0, 125.0 ],
					"saved_attribute_attributes" : 					{
						"textcolor" : 						{
							"expression" : ""
						}
,
						"valueof" : 						{
							"parameter_exponent" : 1.5,
							"parameter_longname" : "f_length",
							"parameter_mmax" : 1000.0,
							"parameter_mmin" : 10.0,
							"parameter_shortname" : "length",
							"parameter_type" : 0,
							"parameter_unitstyle" : 2
						}

					}
,
					"textcolor" : [ 0.862745, 0.870588, 0.878431, 1.0 ],
					"varname" : "live.slider[2]"
				}

			}
, 			{
				"box" : 				{
					"id" : "obj-31",
					"maxclass" : "live.slider",
					"numinlets" : 1,
					"numoutlets" : 2,
					"outlettype" : [ "", "float" ],
					"parameter_enable" : 1,
					"patching_rect" : [ 107.0, 255.0, 45.0, 125.0 ],
					"presentation" : 1,
					"presentation_rect" : [ 62.0, 15.0, 45.0, 125.0 ],
					"saved_attribute_attributes" : 					{
						"textcolor" : 						{
							"expression" : ""
						}
,
						"valueof" : 						{
							"parameter_exponent" : 2.0,
							"parameter_longname" : "base",
							"parameter_mmax" : 500.0,
							"parameter_mmin" : 50.0,
							"parameter_shortname" : "base",
							"parameter_type" : 0,
							"parameter_unitstyle" : 3
						}

					}
,
					"textcolor" : [ 0.862745, 0.870588, 0.878431, 1.0 ],
					"varname" : "live.slider[1]"
				}

			}
, 			{
				"box" : 				{
					"id" : "obj-30",
					"maxclass" : "live.slider",
					"numinlets" : 1,
					"numoutlets" : 2,
					"outlettype" : [ "", "float" ],
					"parameter_enable" : 1,
					"patching_rect" : [ 60.0, 255.0, 45.0, 125.0 ],
					"presentation" : 1,
					"presentation_rect" : [ 15.0, 15.0, 45.0, 125.0 ],
					"saved_attribute_attributes" : 					{
						"textcolor" : 						{
							"expression" : ""
						}
,
						"valueof" : 						{
							"parameter_exponent" : 2.0,
							"parameter_longname" : "peak",
							"parameter_mmax" : 1000.0,
							"parameter_mmin" : 100.0,
							"parameter_shortname" : "peak",
							"parameter_type" : 0,
							"parameter_unitstyle" : 3
						}

					}
,
					"textcolor" : [ 0.862745, 0.870588, 0.878431, 1.0 ],
					"varname" : "live.slider"
				}

			}
, 			{
				"box" : 				{
					"id" : "obj-17",
					"maxclass" : "newobj",
					"numinlets" : 2,
					"numoutlets" : 1,
					"outlettype" : [ "" ],
					"patching_rect" : [ 60.0, 615.0, 50.0, 22.0 ],
					"text" : "pack s f"
				}

			}
, 			{
				"box" : 				{
					"id" : "obj-16",
					"maxclass" : "newobj",
					"numinlets" : 1,
					"numoutlets" : 2,
					"outlettype" : [ "int", "float" ],
					"patching_rect" : [ 60.0, 525.0, 60.0, 22.0 ],
					"text" : "unpack i f"
				}

			}
, 			{
				"box" : 				{
					"id" : "obj-3",
					"maxclass" : "newobj",
					"numinlets" : 9,
					"numoutlets" : 1,
					"outlettype" : [ "list" ],
					"patching_rect" : [ 60.0, 480.0, 300.0, 22.0 ],
					"text" : "funnel 9"
				}

			}
, 			{
				"box" : 				{
					"id" : "obj-1",
					"maxclass" : "newobj",
					"numinlets" : 2,
					"numoutlets" : 2,
					"outlettype" : [ "", "" ],
					"patching_rect" : [ 60.0, 570.0, 412.0, 22.0 ],
					"text" : "zl.lookup peakfreq basefreq freqlen mix length noise noiselength filter filterQ"
				}

			}
, 			{
				"box" : 				{
					"id" : "obj-5",
					"maxclass" : "newobj",
					"numinlets" : 0,
					"numoutlets" : 1,
					"outlettype" : [ "" ],
					"patching_rect" : [ 135.0, 615.0, 107.0, 22.0 ],
					"text" : "wa.patch.bpatcher"
				}

			}
, 			{
				"box" : 				{
					"comment" : "",
					"id" : "obj-2",
					"index" : 0,
					"maxclass" : "outlet",
					"numinlets" : 1,
					"numoutlets" : 0,
					"patching_rect" : [ 60.0, 660.0, 30.0, 30.0 ]
				}

			}
, 			{
				"box" : 				{
					"id" : "obj-29",
					"maxclass" : "panel",
					"numinlets" : 1,
					"numoutlets" : 0,
					"patching_rect" : [ 30.0, 240.0, 555.0, 210.0 ],
					"presentation" : 1,
					"presentation_rect" : [ 0.0, 0.0, 510.0, 195.0 ]
				}

			}
 ],
		"lines" : [ 			{
				"patchline" : 				{
					"destination" : [ "obj-17", 0 ],
					"source" : [ "obj-1", 0 ]
				}

			}
, 			{
				"patchline" : 				{
					"destination" : [ "obj-38", 0 ],
					"source" : [ "obj-10", 1 ]
				}

			}
, 			{
				"patchline" : 				{
					"destination" : [ "obj-18", 0 ],
					"source" : [ "obj-11", 2 ]
				}

			}
, 			{
				"patchline" : 				{
					"destination" : [ "obj-37", 0 ],
					"source" : [ "obj-11", 1 ]
				}

			}
, 			{
				"patchline" : 				{
					"destination" : [ "obj-35", 0 ],
					"source" : [ "obj-12", 1 ]
				}

			}
, 			{
				"patchline" : 				{
					"destination" : [ "obj-33", 0 ],
					"source" : [ "obj-13", 1 ]
				}

			}
, 			{
				"patchline" : 				{
					"destination" : [ "obj-31", 0 ],
					"source" : [ "obj-14", 1 ]
				}

			}
, 			{
				"patchline" : 				{
					"destination" : [ "obj-1", 0 ],
					"source" : [ "obj-16", 0 ]
				}

			}
, 			{
				"patchline" : 				{
					"destination" : [ "obj-17", 1 ],
					"source" : [ "obj-16", 1 ]
				}

			}
, 			{
				"patchline" : 				{
					"destination" : [ "obj-2", 0 ],
					"source" : [ "obj-17", 0 ]
				}

			}
, 			{
				"patchline" : 				{
					"destination" : [ "obj-19", 0 ],
					"source" : [ "obj-18", 0 ]
				}

			}
, 			{
				"patchline" : 				{
					"destination" : [ "obj-4", 0 ],
					"source" : [ "obj-19", 0 ]
				}

			}
, 			{
				"patchline" : 				{
					"destination" : [ "obj-16", 0 ],
					"source" : [ "obj-3", 0 ]
				}

			}
, 			{
				"patchline" : 				{
					"destination" : [ "obj-3", 0 ],
					"source" : [ "obj-30", 0 ]
				}

			}
, 			{
				"patchline" : 				{
					"destination" : [ "obj-3", 1 ],
					"source" : [ "obj-31", 0 ]
				}

			}
, 			{
				"patchline" : 				{
					"destination" : [ "obj-3", 2 ],
					"source" : [ "obj-32", 0 ]
				}

			}
, 			{
				"patchline" : 				{
					"destination" : [ "obj-3", 3 ],
					"source" : [ "obj-33", 1 ]
				}

			}
, 			{
				"patchline" : 				{
					"destination" : [ "obj-3", 4 ],
					"source" : [ "obj-34", 0 ]
				}

			}
, 			{
				"patchline" : 				{
					"destination" : [ "obj-3", 5 ],
					"source" : [ "obj-35", 1 ]
				}

			}
, 			{
				"patchline" : 				{
					"destination" : [ "obj-3", 6 ],
					"source" : [ "obj-36", 0 ]
				}

			}
, 			{
				"patchline" : 				{
					"destination" : [ "obj-3", 7 ],
					"source" : [ "obj-37", 0 ]
				}

			}
, 			{
				"patchline" : 				{
					"destination" : [ "obj-3", 8 ],
					"source" : [ "obj-38", 1 ]
				}

			}
, 			{
				"patchline" : 				{
					"destination" : [ "obj-30", 0 ],
					"order" : 8,
					"source" : [ "obj-4", 1 ]
				}

			}
, 			{
				"patchline" : 				{
					"destination" : [ "obj-31", 0 ],
					"order" : 7,
					"source" : [ "obj-4", 1 ]
				}

			}
, 			{
				"patchline" : 				{
					"destination" : [ "obj-32", 0 ],
					"order" : 6,
					"source" : [ "obj-4", 1 ]
				}

			}
, 			{
				"patchline" : 				{
					"destination" : [ "obj-33", 0 ],
					"order" : 5,
					"source" : [ "obj-4", 1 ]
				}

			}
, 			{
				"patchline" : 				{
					"destination" : [ "obj-34", 0 ],
					"order" : 4,
					"source" : [ "obj-4", 1 ]
				}

			}
, 			{
				"patchline" : 				{
					"destination" : [ "obj-35", 0 ],
					"order" : 3,
					"source" : [ "obj-4", 1 ]
				}

			}
, 			{
				"patchline" : 				{
					"destination" : [ "obj-36", 0 ],
					"order" : 2,
					"source" : [ "obj-4", 1 ]
				}

			}
, 			{
				"patchline" : 				{
					"destination" : [ "obj-37", 0 ],
					"order" : 1,
					"source" : [ "obj-4", 1 ]
				}

			}
, 			{
				"patchline" : 				{
					"destination" : [ "obj-38", 0 ],
					"order" : 0,
					"source" : [ "obj-4", 1 ]
				}

			}
, 			{
				"patchline" : 				{
					"destination" : [ "obj-30", 0 ],
					"source" : [ "obj-6", 1 ]
				}

			}
, 			{
				"patchline" : 				{
					"destination" : [ "obj-32", 0 ],
					"source" : [ "obj-7", 1 ]
				}

			}
, 			{
				"patchline" : 				{
					"destination" : [ "obj-34", 0 ],
					"source" : [ "obj-8", 1 ]
				}

			}
, 			{
				"patchline" : 				{
					"destination" : [ "obj-36", 0 ],
					"source" : [ "obj-9", 1 ]
				}

			}
 ],
		"parameters" : 		{
			"obj-30" : [ "peak", "peak", 0 ],
			"obj-31" : [ "base", "base", 0 ],
			"obj-32" : [ "f_length", "length", 0 ],
			"obj-33" : [ "mix", "mix", 0 ],
			"obj-34" : [ "a_length", "length", 0 ],
			"obj-35" : [ "noise", "noise", 0 ],
			"obj-36" : [ "n_length", "length", 0 ],
			"obj-37" : [ "filterFreq", "freq", 0 ],
			"obj-38" : [ "filterQ", "Q", 0 ],
			"parameterbanks" : 			{
				"0" : 				{
					"index" : 0,
					"name" : "",
					"parameters" : [ "-", "-", "-", "-", "-", "-", "-", "-" ]
				}

			}
,
			"inherited_shortname" : 1
		}
,
		"dependency_cache" : [ 			{
				"name" : "bpatcher_size.js",
				"bootpath" : "/Volumes/ExternalData/_Home/GitHub/MusicProjects/Max/WaMaxPackage/javascript/setup",
				"patcherrelativepath" : "../../javascript/setup",
				"type" : "TEXT",
				"implicit" : 1
			}
, 			{
				"name" : "wa.patch.bpatcher.maxpat",
				"bootpath" : "/Volumes/ExternalData/_Home/GitHub/MusicProjects/Max/WaMaxPackage/patchers/patch",
				"patcherrelativepath" : "../patch",
				"type" : "JSON",
				"implicit" : 1
			}
 ],
		"autosave" : 0
	}

}
