{
	"patcher" : 	{
		"fileversion" : 1,
		"appversion" : 		{
			"major" : 8,
			"minor" : 5,
			"revision" : 3,
			"architecture" : "x64",
			"modernui" : 1
		}
,
		"classnamespace" : "box",
		"rect" : [ 760.0, 128.0, 2221.0, 1283.0 ],
		"bglocked" : 0,
		"openinpresentation" : 0,
		"default_fontsize" : 12.0,
		"default_fontface" : 0,
		"default_fontname" : "Arial",
		"gridonopen" : 2,
		"gridsize" : [ 15.0, 15.0 ],
		"gridsnaponopen" : 2,
		"objectsnaponopen" : 1,
		"statusbarvisible" : 2,
		"toolbarvisible" : 1,
		"lefttoolbarpinned" : 0,
		"toptoolbarpinned" : 0,
		"righttoolbarpinned" : 0,
		"bottomtoolbarpinned" : 0,
		"toolbars_unpinned_last_save" : 0,
		"tallnewobj" : 0,
		"boxanimatetime" : 200,
		"enablehscroll" : 1,
		"enablevscroll" : 1,
		"devicewidth" : 0.0,
		"description" : "",
		"digest" : "",
		"tags" : "",
		"style" : "",
		"subpatcher_template" : "",
		"assistshowspatchername" : 0,
		"boxes" : [ 			{
				"box" : 				{
					"id" : "obj-23",
					"maxclass" : "newobj",
					"numinlets" : 1,
					"numoutlets" : 1,
					"outlettype" : [ "" ],
					"patching_rect" : [ 652.0, 147.0, 122.0, 22.0 ],
					"text" : "prepend presentation"
				}

			}
, 			{
				"box" : 				{
					"id" : "obj-22",
					"maxclass" : "newobj",
					"numinlets" : 2,
					"numoutlets" : 2,
					"outlettype" : [ "", "" ],
					"patching_rect" : [ 652.0, 109.0, 105.0, 22.0 ],
					"text" : "route presentation"
				}

			}
, 			{
				"box" : 				{
					"id" : "obj-21",
					"maxclass" : "newobj",
					"numinlets" : 1,
					"numoutlets" : 2,
					"outlettype" : [ "", "" ],
					"patching_rect" : [ 508.0, 68.0, 163.0, 22.0 ],
					"text" : "patcherargs @presentation 0"
				}

			}
, 			{
				"box" : 				{
					"id" : "obj-2",
					"maxclass" : "newobj",
					"numinlets" : 1,
					"numoutlets" : 2,
					"outlettype" : [ "", "" ],
					"patching_rect" : [ 652.0, 191.0, 67.0, 22.0 ],
					"save" : [ "#N", "thispatcher", ";", "#Q", "end", ";" ],
					"text" : "thispatcher"
				}

			}
, 			{
				"box" : 				{
					"id" : "obj-4",
					"maxclass" : "comment",
					"numinlets" : 1,
					"numoutlets" : 0,
					"patching_rect" : [ 907.0, 180.0, 44.0, 20.0 ],
					"presentation" : 1,
					"presentation_rect" : [ 190.0, 293.0, 44.0, 20.0 ],
					"text" : "steady"
				}

			}
, 			{
				"box" : 				{
					"id" : "obj-5",
					"maxclass" : "newobj",
					"numinlets" : 1,
					"numoutlets" : 1,
					"outlettype" : [ "" ],
					"patching_rect" : [ 937.0, 347.0, 51.0, 22.0 ],
					"text" : "vexpr 1."
				}

			}
, 			{
				"box" : 				{
					"id" : "obj-7",
					"maxclass" : "button",
					"numinlets" : 1,
					"numoutlets" : 1,
					"outlettype" : [ "bang" ],
					"parameter_enable" : 0,
					"patching_rect" : [ 907.0, 217.0, 24.0, 24.0 ],
					"presentation" : 1,
					"presentation_rect" : [ 157.0, 291.0, 24.0, 24.0 ]
				}

			}
, 			{
				"box" : 				{
					"id" : "obj-15",
					"maxclass" : "newobj",
					"numinlets" : 2,
					"numoutlets" : 2,
					"outlettype" : [ "", "" ],
					"patching_rect" : [ 937.0, 304.0, 75.0, 22.0 ],
					"text" : "zl 512 group"
				}

			}
, 			{
				"box" : 				{
					"id" : "obj-18",
					"maxclass" : "newobj",
					"numinlets" : 2,
					"numoutlets" : 3,
					"outlettype" : [ "bang", "bang", "int" ],
					"patching_rect" : [ 907.0, 264.0, 49.0, 22.0 ],
					"text" : "Uzi 512"
				}

			}
, 			{
				"box" : 				{
					"id" : "obj-3",
					"maxclass" : "comment",
					"numinlets" : 1,
					"numoutlets" : 0,
					"patching_rect" : [ 1034.0, 180.0, 40.0, 20.0 ],
					"presentation" : 1,
					"presentation_rect" : [ 67.0, 293.0, 40.0, 20.0 ],
					"text" : "falling"
				}

			}
, 			{
				"box" : 				{
					"id" : "obj-33",
					"maxclass" : "newobj",
					"numinlets" : 2,
					"numoutlets" : 1,
					"outlettype" : [ "signal" ],
					"patching_rect" : [ 249.0, 618.0, 30.0, 22.0 ],
					"text" : "*~ 1"
				}

			}
, 			{
				"box" : 				{
					"id" : "obj-27",
					"maxclass" : "newobj",
					"numinlets" : 3,
					"numoutlets" : 1,
					"outlettype" : [ "signal" ],
					"patching_rect" : [ 319.5, 535.0, 108.0, 22.0 ],
					"text" : "wave~ #0_envA"
				}

			}
, 			{
				"box" : 				{
					"id" : "obj-75",
					"maxclass" : "newobj",
					"numinlets" : 1,
					"numoutlets" : 2,
					"outlettype" : [ "float", "bang" ],
					"patching_rect" : [ 983.0, 709.0, 59.0, 22.0 ],
					"text" : "trigger f b"
				}

			}
, 			{
				"box" : 				{
					"id" : "obj-74",
					"maxclass" : "newobj",
					"numinlets" : 1,
					"numoutlets" : 1,
					"outlettype" : [ "" ],
					"patching_rect" : [ 985.0, 670.0, 25.0, 22.0 ],
					"text" : "iter"
				}

			}
, 			{
				"box" : 				{
					"id" : "obj-73",
					"maxclass" : "newobj",
					"numinlets" : 2,
					"numoutlets" : 1,
					"outlettype" : [ "" ],
					"patching_rect" : [ 1056.75, 797.0, 47.0, 22.0 ],
					"text" : "pack i f"
				}

			}
, 			{
				"box" : 				{
					"id" : "obj-72",
					"maxclass" : "message",
					"numinlets" : 2,
					"numoutlets" : 1,
					"outlettype" : [ "" ],
					"patching_rect" : [ 1104.0, 675.0, 29.5, 22.0 ],
					"text" : "0"
				}

			}
, 			{
				"box" : 				{
					"id" : "obj-70",
					"maxclass" : "newobj",
					"numinlets" : 5,
					"numoutlets" : 4,
					"outlettype" : [ "int", "", "", "int" ],
					"patching_rect" : [ 1056.75, 743.0, 82.0, 22.0 ],
					"text" : "counter 0 512"
				}

			}
, 			{
				"box" : 				{
					"id" : "obj-67",
					"maxclass" : "newobj",
					"numinlets" : 1,
					"numoutlets" : 2,
					"outlettype" : [ "", "bang" ],
					"patching_rect" : [ 1064.0, 591.0, 59.0, 22.0 ],
					"text" : "trigger l b"
				}

			}
, 			{
				"box" : 				{
					"fontname" : "Arial",
					"fontsize" : 12.0,
					"id" : "obj-66",
					"maxclass" : "newobj",
					"numinlets" : 3,
					"numoutlets" : 1,
					"outlettype" : [ "float" ],
					"patching_rect" : [ 1057.0, 847.0, 106.0, 22.0 ],
					"text" : "peek~ #0_envA"
				}

			}
, 			{
				"box" : 				{
					"id" : "obj-60",
					"maxclass" : "newobj",
					"numinlets" : 1,
					"numoutlets" : 1,
					"outlettype" : [ "bang" ],
					"patching_rect" : [ 1139.5, 119.0, 58.0, 22.0 ],
					"text" : "loadbang"
				}

			}
, 			{
				"box" : 				{
					"fontname" : "Arial",
					"fontsize" : 12.0,
					"id" : "obj-34",
					"maxclass" : "newobj",
					"numinlets" : 1,
					"numoutlets" : 2,
					"outlettype" : [ "bang", "int" ],
					"patching_rect" : [ 1139.5, 209.0, 34.5, 22.0 ],
					"text" : "t b i"
				}

			}
, 			{
				"box" : 				{
					"fontname" : "Arial",
					"fontsize" : 12.0,
					"id" : "obj-61",
					"maxclass" : "message",
					"numinlets" : 2,
					"numoutlets" : 1,
					"outlettype" : [ "" ],
					"patching_rect" : [ 1219.0, 301.0, 49.0, 22.0 ],
					"text" : "size $1"
				}

			}
, 			{
				"box" : 				{
					"fontname" : "Arial",
					"fontsize" : 12.0,
					"id" : "obj-62",
					"maxclass" : "newobj",
					"numinlets" : 1,
					"numoutlets" : 2,
					"outlettype" : [ "float", "bang" ],
					"patching_rect" : [ 1219.0, 347.0, 110.0, 22.0 ],
					"text" : "buffer~ #0_envA"
				}

			}
, 			{
				"box" : 				{
					"fontname" : "Arial",
					"fontsize" : 12.0,
					"id" : "obj-63",
					"maxclass" : "newobj",
					"numinlets" : 1,
					"numoutlets" : 2,
					"outlettype" : [ "signal", "float" ],
					"patching_rect" : [ 1155.0, 259.0, 83.0, 22.0 ],
					"text" : "sampstoms~"
				}

			}
, 			{
				"box" : 				{
					"fontname" : "Arial",
					"fontsize" : 12.0,
					"id" : "obj-64",
					"maxclass" : "message",
					"numinlets" : 2,
					"numoutlets" : 1,
					"outlettype" : [ "" ],
					"patching_rect" : [ 1139.5, 165.0, 29.5, 22.0 ],
					"text" : "512"
				}

			}
, 			{
				"box" : 				{
					"id" : "obj-54",
					"maxclass" : "newobj",
					"numinlets" : 1,
					"numoutlets" : 1,
					"outlettype" : [ "" ],
					"patching_rect" : [ 1064.0, 347.0, 112.0, 22.0 ],
					"text" : "vexpr 1. - $f1/512.0"
				}

			}
, 			{
				"box" : 				{
					"id" : "obj-50",
					"maxclass" : "button",
					"numinlets" : 1,
					"numoutlets" : 1,
					"outlettype" : [ "bang" ],
					"parameter_enable" : 0,
					"patching_rect" : [ 1034.0, 217.0, 24.0, 24.0 ],
					"presentation" : 1,
					"presentation_rect" : [ 37.0, 291.0, 24.0, 24.0 ]
				}

			}
, 			{
				"box" : 				{
					"id" : "obj-51",
					"maxclass" : "newobj",
					"numinlets" : 2,
					"numoutlets" : 2,
					"outlettype" : [ "", "" ],
					"patching_rect" : [ 1064.0, 304.0, 75.0, 22.0 ],
					"text" : "zl 512 group"
				}

			}
, 			{
				"box" : 				{
					"id" : "obj-52",
					"maxclass" : "newobj",
					"numinlets" : 2,
					"numoutlets" : 3,
					"outlettype" : [ "bang", "bang", "int" ],
					"patching_rect" : [ 1034.0, 264.0, 49.0, 22.0 ],
					"text" : "Uzi 512"
				}

			}
, 			{
				"box" : 				{
					"id" : "obj-49",
					"maxclass" : "multislider",
					"numinlets" : 1,
					"numoutlets" : 2,
					"outlettype" : [ "", "" ],
					"parameter_enable" : 0,
					"patching_rect" : [ 1064.0, 391.0, 327.0, 176.0 ],
					"presentation" : 1,
					"presentation_rect" : [ 37.0, 92.0, 327.0, 176.0 ],
					"setminmax" : [ 0.0, 1.0 ],
					"size" : 512
				}

			}
, 			{
				"box" : 				{
					"id" : "obj-19",
					"maxclass" : "message",
					"numinlets" : 2,
					"numoutlets" : 1,
					"outlettype" : [ "" ],
					"patching_rect" : [ 293.0, 391.0, 29.5, 22.0 ],
					"text" : "0."
				}

			}
, 			{
				"box" : 				{
					"id" : "obj-17",
					"maxclass" : "newobj",
					"numinlets" : 1,
					"numoutlets" : 1,
					"outlettype" : [ "bang" ],
					"patching_rect" : [ 293.0, 353.5, 58.0, 22.0 ],
					"text" : "loadbang"
				}

			}
, 			{
				"box" : 				{
					"id" : "obj-16",
					"maxclass" : "message",
					"numinlets" : 2,
					"numoutlets" : 1,
					"outlettype" : [ "" ],
					"patching_rect" : [ 231.0, 239.0, 29.5, 22.0 ],
					"text" : "1."
				}

			}
, 			{
				"box" : 				{
					"id" : "obj-9",
					"maxclass" : "newobj",
					"numinlets" : 1,
					"numoutlets" : 1,
					"outlettype" : [ "bang" ],
					"patching_rect" : [ 231.0, 200.5, 58.0, 22.0 ],
					"text" : "loadbang"
				}

			}
, 			{
				"box" : 				{
					"id" : "obj-14",
					"maxclass" : "newobj",
					"numinlets" : 2,
					"numoutlets" : 1,
					"outlettype" : [ "float" ],
					"patching_rect" : [ 293.0, 666.0, 29.5, 22.0 ],
					"text" : "+ 1."
				}

			}
, 			{
				"box" : 				{
					"id" : "obj-13",
					"maxclass" : "newobj",
					"numinlets" : 2,
					"numoutlets" : 1,
					"outlettype" : [ "signal" ],
					"patching_rect" : [ 181.0, 627.0, 30.0, 22.0 ],
					"text" : "*~ 0"
				}

			}
, 			{
				"box" : 				{
					"id" : "obj-12",
					"maxclass" : "live.slider",
					"numinlets" : 1,
					"numoutlets" : 2,
					"orientation" : 1,
					"outlettype" : [ "", "float" ],
					"parameter_enable" : 1,
					"patching_rect" : [ 293.0, 442.0, 155.0, 41.0 ],
					"presentation" : 1,
					"presentation_rect" : [ 218.0, 23.5, 155.0, 41.0 ],
					"saved_attribute_attributes" : 					{
						"valueof" : 						{
							"parameter_longname" : "amplitude",
							"parameter_mmax" : 1.0,
							"parameter_shortname" : "amplitude",
							"parameter_type" : 0,
							"parameter_unitstyle" : 1
						}

					}
,
					"varname" : "amplitude"
				}

			}
, 			{
				"box" : 				{
					"id" : "obj-11",
					"maxclass" : "newobj",
					"numinlets" : 2,
					"numoutlets" : 1,
					"outlettype" : [ "signal" ],
					"patching_rect" : [ 165.0, 722.0, 29.5, 22.0 ],
					"text" : "/~ 2"
				}

			}
, 			{
				"box" : 				{
					"id" : "obj-1",
					"maxclass" : "newobj",
					"numinlets" : 2,
					"numoutlets" : 1,
					"outlettype" : [ "signal" ],
					"patching_rect" : [ 165.0, 666.0, 29.5, 22.0 ],
					"text" : "+~"
				}

			}
, 			{
				"box" : 				{
					"id" : "obj-30",
					"maxclass" : "live.slider",
					"numinlets" : 1,
					"numoutlets" : 2,
					"orientation" : 1,
					"outlettype" : [ "", "float" ],
					"parameter_enable" : 1,
					"patching_rect" : [ 231.0, 277.0, 155.0, 41.0 ],
					"presentation" : 1,
					"presentation_rect" : [ 37.0, 27.0, 155.0, 41.0 ],
					"saved_attribute_attributes" : 					{
						"valueof" : 						{
							"parameter_longname" : "frequency offset",
							"parameter_mmax" : 20.0,
							"parameter_mmin" : 1.0,
							"parameter_shortname" : "frequency offset",
							"parameter_type" : 0,
							"parameter_unitstyle" : 1
						}

					}
,
					"varname" : "frequency"
				}

			}
, 			{
				"box" : 				{
					"id" : "obj-28",
					"maxclass" : "newobj",
					"numinlets" : 3,
					"numoutlets" : 1,
					"outlettype" : [ "signal" ],
					"patching_rect" : [ 183.0, 430.0, 69.0, 22.0 ],
					"text" : "wave~ sine"
				}

			}
, 			{
				"box" : 				{
					"id" : "obj-26",
					"maxclass" : "newobj",
					"numinlets" : 3,
					"numoutlets" : 1,
					"outlettype" : [ "signal" ],
					"patching_rect" : [ 50.0, 430.0, 69.0, 22.0 ],
					"text" : "wave~ sine"
				}

			}
, 			{
				"box" : 				{
					"id" : "obj-10",
					"maxclass" : "newobj",
					"numinlets" : 2,
					"numoutlets" : 1,
					"outlettype" : [ "signal" ],
					"patching_rect" : [ 183.0, 386.0, 40.0, 22.0 ],
					"text" : "%~ 1."
				}

			}
, 			{
				"box" : 				{
					"id" : "obj-8",
					"maxclass" : "newobj",
					"numinlets" : 2,
					"numoutlets" : 1,
					"outlettype" : [ "signal" ],
					"patching_rect" : [ 183.0, 343.0, 34.0, 22.0 ],
					"text" : "*~ 3."
				}

			}
, 			{
				"box" : 				{
					"id" : "obj-6",
					"maxclass" : "newobj",
					"numinlets" : 2,
					"numoutlets" : 1,
					"outlettype" : [ "signal" ],
					"patching_rect" : [ 50.0, 270.0, 72.0, 22.0 ],
					"text" : "phasor~ 0.1"
				}

			}
, 			{
				"box" : 				{
					"comment" : "",
					"id" : "obj-35",
					"index" : 0,
					"maxclass" : "inlet",
					"numinlets" : 0,
					"numoutlets" : 1,
					"outlettype" : [ "" ],
					"patching_rect" : [ 50.0, 40.0, 30.0, 30.0 ]
				}

			}
, 			{
				"box" : 				{
					"comment" : "",
					"id" : "obj-36",
					"index" : 0,
					"maxclass" : "outlet",
					"numinlets" : 1,
					"numoutlets" : 0,
					"patching_rect" : [ 165.0, 910.0, 30.0, 30.0 ]
				}

			}
 ],
		"lines" : [ 			{
				"patchline" : 				{
					"destination" : [ "obj-11", 0 ],
					"source" : [ "obj-1", 0 ]
				}

			}
, 			{
				"patchline" : 				{
					"destination" : [ "obj-28", 0 ],
					"source" : [ "obj-10", 0 ]
				}

			}
, 			{
				"patchline" : 				{
					"destination" : [ "obj-36", 0 ],
					"source" : [ "obj-11", 0 ]
				}

			}
, 			{
				"patchline" : 				{
					"destination" : [ "obj-14", 0 ],
					"order" : 0,
					"source" : [ "obj-12", 0 ]
				}

			}
, 			{
				"patchline" : 				{
					"destination" : [ "obj-33", 0 ],
					"order" : 1,
					"source" : [ "obj-12", 0 ]
				}

			}
, 			{
				"patchline" : 				{
					"destination" : [ "obj-1", 1 ],
					"source" : [ "obj-13", 0 ]
				}

			}
, 			{
				"patchline" : 				{
					"destination" : [ "obj-11", 1 ],
					"source" : [ "obj-14", 0 ]
				}

			}
, 			{
				"patchline" : 				{
					"destination" : [ "obj-5", 0 ],
					"source" : [ "obj-15", 0 ]
				}

			}
, 			{
				"patchline" : 				{
					"destination" : [ "obj-30", 0 ],
					"source" : [ "obj-16", 0 ]
				}

			}
, 			{
				"patchline" : 				{
					"destination" : [ "obj-19", 0 ],
					"source" : [ "obj-17", 0 ]
				}

			}
, 			{
				"patchline" : 				{
					"destination" : [ "obj-15", 0 ],
					"source" : [ "obj-18", 2 ]
				}

			}
, 			{
				"patchline" : 				{
					"destination" : [ "obj-12", 0 ],
					"source" : [ "obj-19", 0 ]
				}

			}
, 			{
				"patchline" : 				{
					"destination" : [ "obj-22", 0 ],
					"source" : [ "obj-21", 1 ]
				}

			}
, 			{
				"patchline" : 				{
					"destination" : [ "obj-23", 0 ],
					"source" : [ "obj-22", 0 ]
				}

			}
, 			{
				"patchline" : 				{
					"destination" : [ "obj-2", 0 ],
					"source" : [ "obj-23", 0 ]
				}

			}
, 			{
				"patchline" : 				{
					"destination" : [ "obj-1", 0 ],
					"source" : [ "obj-26", 0 ]
				}

			}
, 			{
				"patchline" : 				{
					"destination" : [ "obj-33", 1 ],
					"source" : [ "obj-27", 0 ]
				}

			}
, 			{
				"patchline" : 				{
					"destination" : [ "obj-13", 0 ],
					"source" : [ "obj-28", 0 ]
				}

			}
, 			{
				"patchline" : 				{
					"destination" : [ "obj-8", 1 ],
					"source" : [ "obj-30", 0 ]
				}

			}
, 			{
				"patchline" : 				{
					"destination" : [ "obj-13", 1 ],
					"source" : [ "obj-33", 0 ]
				}

			}
, 			{
				"patchline" : 				{
					"destination" : [ "obj-52", 0 ],
					"source" : [ "obj-34", 0 ]
				}

			}
, 			{
				"patchline" : 				{
					"destination" : [ "obj-63", 0 ],
					"source" : [ "obj-34", 1 ]
				}

			}
, 			{
				"patchline" : 				{
					"destination" : [ "obj-6", 0 ],
					"source" : [ "obj-35", 0 ]
				}

			}
, 			{
				"patchline" : 				{
					"destination" : [ "obj-67", 0 ],
					"source" : [ "obj-49", 0 ]
				}

			}
, 			{
				"patchline" : 				{
					"destination" : [ "obj-49", 0 ],
					"source" : [ "obj-5", 0 ]
				}

			}
, 			{
				"patchline" : 				{
					"destination" : [ "obj-52", 0 ],
					"source" : [ "obj-50", 0 ]
				}

			}
, 			{
				"patchline" : 				{
					"destination" : [ "obj-54", 0 ],
					"source" : [ "obj-51", 0 ]
				}

			}
, 			{
				"patchline" : 				{
					"destination" : [ "obj-51", 0 ],
					"source" : [ "obj-52", 2 ]
				}

			}
, 			{
				"patchline" : 				{
					"destination" : [ "obj-49", 0 ],
					"source" : [ "obj-54", 0 ]
				}

			}
, 			{
				"patchline" : 				{
					"destination" : [ "obj-26", 0 ],
					"order" : 2,
					"source" : [ "obj-6", 0 ]
				}

			}
, 			{
				"patchline" : 				{
					"destination" : [ "obj-27", 0 ],
					"order" : 0,
					"source" : [ "obj-6", 0 ]
				}

			}
, 			{
				"patchline" : 				{
					"destination" : [ "obj-8", 0 ],
					"order" : 1,
					"source" : [ "obj-6", 0 ]
				}

			}
, 			{
				"patchline" : 				{
					"destination" : [ "obj-64", 0 ],
					"source" : [ "obj-60", 0 ]
				}

			}
, 			{
				"patchline" : 				{
					"destination" : [ "obj-62", 0 ],
					"source" : [ "obj-61", 0 ]
				}

			}
, 			{
				"patchline" : 				{
					"destination" : [ "obj-61", 0 ],
					"source" : [ "obj-63", 1 ]
				}

			}
, 			{
				"patchline" : 				{
					"destination" : [ "obj-34", 0 ],
					"source" : [ "obj-64", 0 ]
				}

			}
, 			{
				"patchline" : 				{
					"destination" : [ "obj-72", 0 ],
					"source" : [ "obj-67", 1 ]
				}

			}
, 			{
				"patchline" : 				{
					"destination" : [ "obj-74", 0 ],
					"source" : [ "obj-67", 0 ]
				}

			}
, 			{
				"patchline" : 				{
					"destination" : [ "obj-18", 0 ],
					"source" : [ "obj-7", 0 ]
				}

			}
, 			{
				"patchline" : 				{
					"destination" : [ "obj-73", 0 ],
					"source" : [ "obj-70", 0 ]
				}

			}
, 			{
				"patchline" : 				{
					"destination" : [ "obj-70", 3 ],
					"source" : [ "obj-72", 0 ]
				}

			}
, 			{
				"patchline" : 				{
					"destination" : [ "obj-66", 0 ],
					"source" : [ "obj-73", 0 ]
				}

			}
, 			{
				"patchline" : 				{
					"destination" : [ "obj-75", 0 ],
					"source" : [ "obj-74", 0 ]
				}

			}
, 			{
				"patchline" : 				{
					"destination" : [ "obj-70", 0 ],
					"source" : [ "obj-75", 1 ]
				}

			}
, 			{
				"patchline" : 				{
					"destination" : [ "obj-73", 1 ],
					"source" : [ "obj-75", 0 ]
				}

			}
, 			{
				"patchline" : 				{
					"destination" : [ "obj-10", 0 ],
					"source" : [ "obj-8", 0 ]
				}

			}
, 			{
				"patchline" : 				{
					"destination" : [ "obj-16", 0 ],
					"source" : [ "obj-9", 0 ]
				}

			}
 ],
		"parameters" : 		{
			"obj-12" : [ "amplitude", "amplitude", 0 ],
			"obj-30" : [ "frequency offset", "frequency offset", 0 ],
			"parameterbanks" : 			{
				"0" : 				{
					"index" : 0,
					"name" : "",
					"parameters" : [ "-", "-", "-", "-", "-", "-", "-", "-" ]
				}

			}
,
			"inherited_shortname" : 1
		}
,
		"dependency_cache" : [  ],
		"autosave" : 0
	}

}
